%TF.GenerationSoftware,KiCad,Pcbnew,(6.0.11)*%
%TF.CreationDate,2024-05-04T19:15:54+02:00*%
%TF.ProjectId,dolphindos3-kicad,646f6c70-6869-46e6-946f-73332d6b6963,2*%
%TF.SameCoordinates,Original*%
%TF.FileFunction,Drillmap*%
%TF.FilePolarity,Positive*%
%FSLAX45Y45*%
G04 Gerber Fmt 4.5, Leading zero omitted, Abs format (unit mm)*
G04 Created by KiCad (PCBNEW (6.0.11)) date 2024-05-04 19:15:54*
%MOMM*%
%LPD*%
G01*
G04 APERTURE LIST*
%ADD10C,0.050000*%
%ADD11C,0.200000*%
%ADD12C,0.300000*%
G04 APERTURE END LIST*
D10*
X5344160Y-7095490D02*
X15123160Y-7095490D01*
X15123160Y-7095490D02*
X15123160Y-15540990D01*
X15123160Y-15540990D02*
X5344160Y-15540990D01*
X5344160Y-15540990D02*
X5344160Y-7095490D01*
D11*
D12*
X5565000Y-7343000D02*
X5865000Y-7643000D01*
X5865000Y-7343000D02*
X5565000Y-7643000D01*
X5565000Y-15039200D02*
X5865000Y-15339200D01*
X5865000Y-15039200D02*
X5565000Y-15339200D01*
X14607400Y-15039200D02*
X14907400Y-15339200D01*
X14907400Y-15039200D02*
X14607400Y-15339200D01*
D11*
X5599279Y-15853966D02*
X5599279Y-15653966D01*
X5646898Y-15653966D01*
X5675469Y-15663490D01*
X5694517Y-15682538D01*
X5704041Y-15701585D01*
X5713565Y-15739680D01*
X5713565Y-15768252D01*
X5704041Y-15806347D01*
X5694517Y-15825395D01*
X5675469Y-15844442D01*
X5646898Y-15853966D01*
X5599279Y-15853966D01*
X5799279Y-15853966D02*
X5799279Y-15720633D01*
X5799279Y-15758728D02*
X5808803Y-15739680D01*
X5818327Y-15730157D01*
X5837374Y-15720633D01*
X5856422Y-15720633D01*
X5923088Y-15853966D02*
X5923088Y-15720633D01*
X5923088Y-15653966D02*
X5913565Y-15663490D01*
X5923088Y-15673014D01*
X5932612Y-15663490D01*
X5923088Y-15653966D01*
X5923088Y-15673014D01*
X6046898Y-15853966D02*
X6027850Y-15844442D01*
X6018327Y-15825395D01*
X6018327Y-15653966D01*
X6151660Y-15853966D02*
X6132612Y-15844442D01*
X6123088Y-15825395D01*
X6123088Y-15653966D01*
X6380231Y-15853966D02*
X6380231Y-15653966D01*
X6446898Y-15796823D01*
X6513565Y-15653966D01*
X6513565Y-15853966D01*
X6694517Y-15853966D02*
X6694517Y-15749204D01*
X6684993Y-15730157D01*
X6665946Y-15720633D01*
X6627850Y-15720633D01*
X6608803Y-15730157D01*
X6694517Y-15844442D02*
X6675469Y-15853966D01*
X6627850Y-15853966D01*
X6608803Y-15844442D01*
X6599279Y-15825395D01*
X6599279Y-15806347D01*
X6608803Y-15787299D01*
X6627850Y-15777776D01*
X6675469Y-15777776D01*
X6694517Y-15768252D01*
X6789755Y-15720633D02*
X6789755Y-15920633D01*
X6789755Y-15730157D02*
X6808803Y-15720633D01*
X6846898Y-15720633D01*
X6865946Y-15730157D01*
X6875469Y-15739680D01*
X6884993Y-15758728D01*
X6884993Y-15815871D01*
X6875469Y-15834918D01*
X6865946Y-15844442D01*
X6846898Y-15853966D01*
X6808803Y-15853966D01*
X6789755Y-15844442D01*
X6970708Y-15834918D02*
X6980231Y-15844442D01*
X6970708Y-15853966D01*
X6961184Y-15844442D01*
X6970708Y-15834918D01*
X6970708Y-15853966D01*
X6970708Y-15730157D02*
X6980231Y-15739680D01*
X6970708Y-15749204D01*
X6961184Y-15739680D01*
X6970708Y-15730157D01*
X6970708Y-15749204D01*
X5141660Y-16083490D02*
X5341660Y-16283490D01*
X5341660Y-16083490D02*
X5141660Y-16283490D01*
X5580231Y-16073966D02*
X5704041Y-16073966D01*
X5637374Y-16150157D01*
X5665946Y-16150157D01*
X5684993Y-16159680D01*
X5694517Y-16169204D01*
X5704041Y-16188252D01*
X5704041Y-16235871D01*
X5694517Y-16254918D01*
X5684993Y-16264442D01*
X5665946Y-16273966D01*
X5608803Y-16273966D01*
X5589755Y-16264442D01*
X5580231Y-16254918D01*
X5789755Y-16254918D02*
X5799279Y-16264442D01*
X5789755Y-16273966D01*
X5780231Y-16264442D01*
X5789755Y-16254918D01*
X5789755Y-16273966D01*
X5923088Y-16073966D02*
X5942136Y-16073966D01*
X5961184Y-16083490D01*
X5970708Y-16093014D01*
X5980231Y-16112061D01*
X5989755Y-16150157D01*
X5989755Y-16197776D01*
X5980231Y-16235871D01*
X5970708Y-16254918D01*
X5961184Y-16264442D01*
X5942136Y-16273966D01*
X5923088Y-16273966D01*
X5904041Y-16264442D01*
X5894517Y-16254918D01*
X5884993Y-16235871D01*
X5875469Y-16197776D01*
X5875469Y-16150157D01*
X5884993Y-16112061D01*
X5894517Y-16093014D01*
X5904041Y-16083490D01*
X5923088Y-16073966D01*
X6113565Y-16073966D02*
X6132612Y-16073966D01*
X6151660Y-16083490D01*
X6161184Y-16093014D01*
X6170708Y-16112061D01*
X6180231Y-16150157D01*
X6180231Y-16197776D01*
X6170708Y-16235871D01*
X6161184Y-16254918D01*
X6151660Y-16264442D01*
X6132612Y-16273966D01*
X6113565Y-16273966D01*
X6094517Y-16264442D01*
X6084993Y-16254918D01*
X6075469Y-16235871D01*
X6065946Y-16197776D01*
X6065946Y-16150157D01*
X6075469Y-16112061D01*
X6084993Y-16093014D01*
X6094517Y-16083490D01*
X6113565Y-16073966D01*
X6304041Y-16073966D02*
X6323088Y-16073966D01*
X6342136Y-16083490D01*
X6351660Y-16093014D01*
X6361184Y-16112061D01*
X6370708Y-16150157D01*
X6370708Y-16197776D01*
X6361184Y-16235871D01*
X6351660Y-16254918D01*
X6342136Y-16264442D01*
X6323088Y-16273966D01*
X6304041Y-16273966D01*
X6284993Y-16264442D01*
X6275469Y-16254918D01*
X6265946Y-16235871D01*
X6256422Y-16197776D01*
X6256422Y-16150157D01*
X6265946Y-16112061D01*
X6275469Y-16093014D01*
X6284993Y-16083490D01*
X6304041Y-16073966D01*
X6456422Y-16273966D02*
X6456422Y-16140633D01*
X6456422Y-16159680D02*
X6465946Y-16150157D01*
X6484993Y-16140633D01*
X6513565Y-16140633D01*
X6532612Y-16150157D01*
X6542136Y-16169204D01*
X6542136Y-16273966D01*
X6542136Y-16169204D02*
X6551660Y-16150157D01*
X6570708Y-16140633D01*
X6599279Y-16140633D01*
X6618327Y-16150157D01*
X6627850Y-16169204D01*
X6627850Y-16273966D01*
X6723088Y-16273966D02*
X6723088Y-16140633D01*
X6723088Y-16159680D02*
X6732612Y-16150157D01*
X6751660Y-16140633D01*
X6780231Y-16140633D01*
X6799279Y-16150157D01*
X6808803Y-16169204D01*
X6808803Y-16273966D01*
X6808803Y-16169204D02*
X6818327Y-16150157D01*
X6837374Y-16140633D01*
X6865946Y-16140633D01*
X6884993Y-16150157D01*
X6894517Y-16169204D01*
X6894517Y-16273966D01*
X7284993Y-16064442D02*
X7113565Y-16321585D01*
X7542136Y-16073966D02*
X7561184Y-16073966D01*
X7580231Y-16083490D01*
X7589755Y-16093014D01*
X7599279Y-16112061D01*
X7608803Y-16150157D01*
X7608803Y-16197776D01*
X7599279Y-16235871D01*
X7589755Y-16254918D01*
X7580231Y-16264442D01*
X7561184Y-16273966D01*
X7542136Y-16273966D01*
X7523088Y-16264442D01*
X7513565Y-16254918D01*
X7504041Y-16235871D01*
X7494517Y-16197776D01*
X7494517Y-16150157D01*
X7504041Y-16112061D01*
X7513565Y-16093014D01*
X7523088Y-16083490D01*
X7542136Y-16073966D01*
X7694517Y-16254918D02*
X7704041Y-16264442D01*
X7694517Y-16273966D01*
X7684993Y-16264442D01*
X7694517Y-16254918D01*
X7694517Y-16273966D01*
X7894517Y-16273966D02*
X7780231Y-16273966D01*
X7837374Y-16273966D02*
X7837374Y-16073966D01*
X7818327Y-16102538D01*
X7799279Y-16121585D01*
X7780231Y-16131109D01*
X8084993Y-16273966D02*
X7970708Y-16273966D01*
X8027850Y-16273966D02*
X8027850Y-16073966D01*
X8008803Y-16102538D01*
X7989755Y-16121585D01*
X7970708Y-16131109D01*
X8199279Y-16159680D02*
X8180231Y-16150157D01*
X8170708Y-16140633D01*
X8161184Y-16121585D01*
X8161184Y-16112061D01*
X8170708Y-16093014D01*
X8180231Y-16083490D01*
X8199279Y-16073966D01*
X8237374Y-16073966D01*
X8256422Y-16083490D01*
X8265946Y-16093014D01*
X8275469Y-16112061D01*
X8275469Y-16121585D01*
X8265946Y-16140633D01*
X8256422Y-16150157D01*
X8237374Y-16159680D01*
X8199279Y-16159680D01*
X8180231Y-16169204D01*
X8170708Y-16178728D01*
X8161184Y-16197776D01*
X8161184Y-16235871D01*
X8170708Y-16254918D01*
X8180231Y-16264442D01*
X8199279Y-16273966D01*
X8237374Y-16273966D01*
X8256422Y-16264442D01*
X8265946Y-16254918D01*
X8275469Y-16235871D01*
X8275469Y-16197776D01*
X8265946Y-16178728D01*
X8256422Y-16169204D01*
X8237374Y-16159680D01*
X8465946Y-16273966D02*
X8351660Y-16273966D01*
X8408803Y-16273966D02*
X8408803Y-16073966D01*
X8389755Y-16102538D01*
X8370708Y-16121585D01*
X8351660Y-16131109D01*
X8542136Y-16073966D02*
X8542136Y-16112061D01*
X8618327Y-16073966D02*
X8618327Y-16112061D01*
X8913565Y-16350157D02*
X8904041Y-16340633D01*
X8884993Y-16312061D01*
X8875470Y-16293014D01*
X8865946Y-16264442D01*
X8856422Y-16216823D01*
X8856422Y-16178728D01*
X8865946Y-16131109D01*
X8875470Y-16102538D01*
X8884993Y-16083490D01*
X8904041Y-16054918D01*
X8913565Y-16045395D01*
X8970708Y-16073966D02*
X9094517Y-16073966D01*
X9027850Y-16150157D01*
X9056422Y-16150157D01*
X9075470Y-16159680D01*
X9084993Y-16169204D01*
X9094517Y-16188252D01*
X9094517Y-16235871D01*
X9084993Y-16254918D01*
X9075470Y-16264442D01*
X9056422Y-16273966D01*
X8999279Y-16273966D01*
X8980231Y-16264442D01*
X8970708Y-16254918D01*
X9332612Y-16273966D02*
X9332612Y-16073966D01*
X9418327Y-16273966D02*
X9418327Y-16169204D01*
X9408803Y-16150157D01*
X9389755Y-16140633D01*
X9361184Y-16140633D01*
X9342136Y-16150157D01*
X9332612Y-16159680D01*
X9542136Y-16273966D02*
X9523089Y-16264442D01*
X9513565Y-16254918D01*
X9504041Y-16235871D01*
X9504041Y-16178728D01*
X9513565Y-16159680D01*
X9523089Y-16150157D01*
X9542136Y-16140633D01*
X9570708Y-16140633D01*
X9589755Y-16150157D01*
X9599279Y-16159680D01*
X9608803Y-16178728D01*
X9608803Y-16235871D01*
X9599279Y-16254918D01*
X9589755Y-16264442D01*
X9570708Y-16273966D01*
X9542136Y-16273966D01*
X9723089Y-16273966D02*
X9704041Y-16264442D01*
X9694517Y-16245395D01*
X9694517Y-16073966D01*
X9875470Y-16264442D02*
X9856422Y-16273966D01*
X9818327Y-16273966D01*
X9799279Y-16264442D01*
X9789755Y-16245395D01*
X9789755Y-16169204D01*
X9799279Y-16150157D01*
X9818327Y-16140633D01*
X9856422Y-16140633D01*
X9875470Y-16150157D01*
X9884993Y-16169204D01*
X9884993Y-16188252D01*
X9789755Y-16207299D01*
X9961184Y-16264442D02*
X9980231Y-16273966D01*
X10018327Y-16273966D01*
X10037374Y-16264442D01*
X10046898Y-16245395D01*
X10046898Y-16235871D01*
X10037374Y-16216823D01*
X10018327Y-16207299D01*
X9989755Y-16207299D01*
X9970708Y-16197776D01*
X9961184Y-16178728D01*
X9961184Y-16169204D01*
X9970708Y-16150157D01*
X9989755Y-16140633D01*
X10018327Y-16140633D01*
X10037374Y-16150157D01*
X10113565Y-16350157D02*
X10123089Y-16340633D01*
X10142136Y-16312061D01*
X10151660Y-16293014D01*
X10161184Y-16264442D01*
X10170708Y-16216823D01*
X10170708Y-16178728D01*
X10161184Y-16131109D01*
X10151660Y-16102538D01*
X10142136Y-16083490D01*
X10123089Y-16054918D01*
X10113565Y-16045395D01*
X10475470Y-16350157D02*
X10465946Y-16340633D01*
X10446898Y-16312061D01*
X10437374Y-16293014D01*
X10427850Y-16264442D01*
X10418327Y-16216823D01*
X10418327Y-16178728D01*
X10427850Y-16131109D01*
X10437374Y-16102538D01*
X10446898Y-16083490D01*
X10465946Y-16054918D01*
X10475470Y-16045395D01*
X10551660Y-16140633D02*
X10551660Y-16273966D01*
X10551660Y-16159680D02*
X10561184Y-16150157D01*
X10580231Y-16140633D01*
X10608803Y-16140633D01*
X10627850Y-16150157D01*
X10637374Y-16169204D01*
X10637374Y-16273966D01*
X10761184Y-16273966D02*
X10742136Y-16264442D01*
X10732612Y-16254918D01*
X10723089Y-16235871D01*
X10723089Y-16178728D01*
X10732612Y-16159680D01*
X10742136Y-16150157D01*
X10761184Y-16140633D01*
X10789755Y-16140633D01*
X10808803Y-16150157D01*
X10818327Y-16159680D01*
X10827850Y-16178728D01*
X10827850Y-16235871D01*
X10818327Y-16254918D01*
X10808803Y-16264442D01*
X10789755Y-16273966D01*
X10761184Y-16273966D01*
X10884993Y-16140633D02*
X10961184Y-16140633D01*
X10913565Y-16073966D02*
X10913565Y-16245395D01*
X10923089Y-16264442D01*
X10942136Y-16273966D01*
X10961184Y-16273966D01*
X11180231Y-16140633D02*
X11180231Y-16340633D01*
X11180231Y-16150157D02*
X11199279Y-16140633D01*
X11237374Y-16140633D01*
X11256422Y-16150157D01*
X11265946Y-16159680D01*
X11275469Y-16178728D01*
X11275469Y-16235871D01*
X11265946Y-16254918D01*
X11256422Y-16264442D01*
X11237374Y-16273966D01*
X11199279Y-16273966D01*
X11180231Y-16264442D01*
X11389755Y-16273966D02*
X11370708Y-16264442D01*
X11361184Y-16245395D01*
X11361184Y-16073966D01*
X11551660Y-16273966D02*
X11551660Y-16169204D01*
X11542136Y-16150157D01*
X11523088Y-16140633D01*
X11484993Y-16140633D01*
X11465946Y-16150157D01*
X11551660Y-16264442D02*
X11532612Y-16273966D01*
X11484993Y-16273966D01*
X11465946Y-16264442D01*
X11456422Y-16245395D01*
X11456422Y-16226347D01*
X11465946Y-16207299D01*
X11484993Y-16197776D01*
X11532612Y-16197776D01*
X11551660Y-16188252D01*
X11618327Y-16140633D02*
X11694517Y-16140633D01*
X11646898Y-16073966D02*
X11646898Y-16245395D01*
X11656422Y-16264442D01*
X11675469Y-16273966D01*
X11694517Y-16273966D01*
X11837374Y-16264442D02*
X11818327Y-16273966D01*
X11780231Y-16273966D01*
X11761184Y-16264442D01*
X11751660Y-16245395D01*
X11751660Y-16169204D01*
X11761184Y-16150157D01*
X11780231Y-16140633D01*
X11818327Y-16140633D01*
X11837374Y-16150157D01*
X11846898Y-16169204D01*
X11846898Y-16188252D01*
X11751660Y-16207299D01*
X12018327Y-16273966D02*
X12018327Y-16073966D01*
X12018327Y-16264442D02*
X11999279Y-16273966D01*
X11961184Y-16273966D01*
X11942136Y-16264442D01*
X11932612Y-16254918D01*
X11923088Y-16235871D01*
X11923088Y-16178728D01*
X11932612Y-16159680D01*
X11942136Y-16150157D01*
X11961184Y-16140633D01*
X11999279Y-16140633D01*
X12018327Y-16150157D01*
X12094517Y-16350157D02*
X12104041Y-16340633D01*
X12123088Y-16312061D01*
X12132612Y-16293014D01*
X12142136Y-16264442D01*
X12151660Y-16216823D01*
X12151660Y-16178728D01*
X12142136Y-16131109D01*
X12132612Y-16102538D01*
X12123088Y-16083490D01*
X12104041Y-16054918D01*
X12094517Y-16045395D01*
M02*
