G04 #@! TF.GenerationSoftware,KiCad,Pcbnew,(6.0.11)*
G04 #@! TF.CreationDate,2024-05-04T19:15:30+02:00*
G04 #@! TF.ProjectId,dolphindos3-kicad,646f6c70-6869-46e6-946f-73332d6b6963,2*
G04 #@! TF.SameCoordinates,Original*
G04 #@! TF.FileFunction,Soldermask,Bot*
G04 #@! TF.FilePolarity,Negative*
%FSLAX46Y46*%
G04 Gerber Fmt 4.6, Leading zero omitted, Abs format (unit mm)*
G04 Created by KiCad (PCBNEW (6.0.11)) date 2024-05-04 19:15:30*
%MOMM*%
%LPD*%
G01*
G04 APERTURE LIST*
G04 Aperture macros list*
%AMRoundRect*
0 Rectangle with rounded corners*
0 $1 Rounding radius*
0 $2 $3 $4 $5 $6 $7 $8 $9 X,Y pos of 4 corners*
0 Add a 4 corners polygon primitive as box body*
4,1,4,$2,$3,$4,$5,$6,$7,$8,$9,$2,$3,0*
0 Add four circle primitives for the rounded corners*
1,1,$1+$1,$2,$3*
1,1,$1+$1,$4,$5*
1,1,$1+$1,$6,$7*
1,1,$1+$1,$8,$9*
0 Add four rect primitives between the rounded corners*
20,1,$1+$1,$2,$3,$4,$5,0*
20,1,$1+$1,$4,$5,$6,$7,0*
20,1,$1+$1,$6,$7,$8,$9,0*
20,1,$1+$1,$8,$9,$2,$3,0*%
G04 Aperture macros list end*
%ADD10R,1.600000X1.600000*%
%ADD11O,1.600000X1.600000*%
%ADD12C,1.600000*%
%ADD13R,1.700000X1.700000*%
%ADD14O,1.700000X1.700000*%
%ADD15C,3.000000*%
%ADD16RoundRect,0.250000X-0.600000X-0.600000X0.600000X-0.600000X0.600000X0.600000X-0.600000X0.600000X0*%
%ADD17C,1.700000*%
%ADD18RoundRect,0.250000X0.600000X-0.600000X0.600000X0.600000X-0.600000X0.600000X-0.600000X-0.600000X0*%
G04 APERTURE END LIST*
D10*
X141732000Y-141996000D03*
D11*
X139192000Y-141996000D03*
X136652000Y-141996000D03*
X134112000Y-141996000D03*
X131572000Y-141996000D03*
X129032000Y-141996000D03*
X126492000Y-141996000D03*
X126492000Y-149616000D03*
X129032000Y-149616000D03*
X131572000Y-149616000D03*
X134112000Y-149616000D03*
X136652000Y-149616000D03*
X139192000Y-149616000D03*
X141732000Y-149616000D03*
D12*
X76708000Y-127889000D03*
D11*
X76708000Y-120269000D03*
D13*
X56642000Y-141478000D03*
D14*
X56642000Y-144018000D03*
D12*
X74397000Y-135382000D03*
X71897000Y-135382000D03*
X80772000Y-138176000D03*
X83272000Y-138176000D03*
X56642000Y-133878000D03*
X56642000Y-136378000D03*
D15*
X147574000Y-151892000D03*
D12*
X121920000Y-149606000D03*
X121920000Y-147106000D03*
D10*
X134361000Y-76835000D03*
D11*
X134361000Y-79375000D03*
X134361000Y-81915000D03*
X134361000Y-84455000D03*
X134361000Y-86995000D03*
X134361000Y-89535000D03*
X134361000Y-92075000D03*
X134361000Y-94615000D03*
X134361000Y-97155000D03*
X134361000Y-99695000D03*
X134361000Y-102235000D03*
X134361000Y-104775000D03*
X134361000Y-107315000D03*
X134361000Y-109855000D03*
X134361000Y-112395000D03*
X134361000Y-114935000D03*
X134361000Y-117475000D03*
X134361000Y-120015000D03*
X134361000Y-122555000D03*
X134361000Y-125095000D03*
X149601000Y-125095000D03*
X149601000Y-122555000D03*
X149601000Y-120015000D03*
X149601000Y-117475000D03*
X149601000Y-114935000D03*
X149601000Y-112395000D03*
X149601000Y-109855000D03*
X149601000Y-107315000D03*
X149601000Y-104775000D03*
X149601000Y-102235000D03*
X149601000Y-99695000D03*
X149601000Y-97155000D03*
X149601000Y-94615000D03*
X149601000Y-92075000D03*
X149601000Y-89535000D03*
X149601000Y-86995000D03*
X149601000Y-84455000D03*
X149601000Y-81915000D03*
X149601000Y-79375000D03*
X149601000Y-76835000D03*
D15*
X57150000Y-74930000D03*
D12*
X129012000Y-138938000D03*
X126512000Y-138938000D03*
D13*
X76581000Y-108336000D03*
D14*
X76581000Y-105796000D03*
D12*
X62484000Y-141478000D03*
D11*
X62484000Y-133858000D03*
D10*
X96012000Y-141986000D03*
D11*
X93472000Y-141986000D03*
X90932000Y-141986000D03*
X88392000Y-141986000D03*
X85852000Y-141986000D03*
X83312000Y-141986000D03*
X80772000Y-141986000D03*
X80772000Y-149606000D03*
X83312000Y-149606000D03*
X85852000Y-149606000D03*
X88392000Y-149606000D03*
X90932000Y-149606000D03*
X93472000Y-149606000D03*
X96012000Y-149606000D03*
D13*
X114940000Y-76835000D03*
D14*
X112400000Y-76835000D03*
D12*
X107930000Y-74676000D03*
X105430000Y-74676000D03*
D16*
X121920000Y-76830000D03*
D17*
X124460000Y-76830000D03*
X121920000Y-79370000D03*
X124460000Y-79370000D03*
X121920000Y-81910000D03*
X124460000Y-81910000D03*
X121920000Y-84450000D03*
X124460000Y-84450000D03*
X121920000Y-86990000D03*
X124460000Y-86990000D03*
X121920000Y-89530000D03*
X124460000Y-89530000D03*
X121920000Y-92070000D03*
X124460000Y-92070000D03*
X121920000Y-94610000D03*
X124460000Y-94610000D03*
X121920000Y-97150000D03*
X124460000Y-97150000D03*
X121920000Y-99690000D03*
X124460000Y-99690000D03*
X121920000Y-102230000D03*
X124460000Y-102230000D03*
X121920000Y-104770000D03*
X124460000Y-104770000D03*
X121920000Y-107310000D03*
X124460000Y-107310000D03*
X121920000Y-109850000D03*
X124460000Y-109850000D03*
X121920000Y-112390000D03*
X124460000Y-112390000D03*
X121920000Y-114930000D03*
X124460000Y-114930000D03*
X121920000Y-117470000D03*
X124460000Y-117470000D03*
X121920000Y-120010000D03*
X124460000Y-120010000D03*
X121920000Y-122550000D03*
X124460000Y-122550000D03*
X121920000Y-125090000D03*
X124460000Y-125090000D03*
D10*
X131318000Y-76830000D03*
D11*
X131318000Y-79370000D03*
X131318000Y-81910000D03*
X131318000Y-84450000D03*
X131318000Y-86990000D03*
X131318000Y-89530000D03*
X131318000Y-92070000D03*
X131318000Y-94610000D03*
X131318000Y-97150000D03*
X131318000Y-99690000D03*
X131318000Y-102230000D03*
X131318000Y-104770000D03*
X131318000Y-107310000D03*
X131318000Y-109850000D03*
X131318000Y-112390000D03*
X131318000Y-114930000D03*
X131318000Y-117470000D03*
X131318000Y-120010000D03*
X131318000Y-122550000D03*
X131318000Y-125090000D03*
X146558000Y-125090000D03*
X146558000Y-122550000D03*
X146558000Y-120010000D03*
X146558000Y-117470000D03*
X146558000Y-114930000D03*
X146558000Y-112390000D03*
X146558000Y-109850000D03*
X146558000Y-107310000D03*
X146558000Y-104770000D03*
X146558000Y-102230000D03*
X146558000Y-99690000D03*
X146558000Y-97150000D03*
X146558000Y-94610000D03*
X146558000Y-92070000D03*
X146558000Y-89530000D03*
X146558000Y-86990000D03*
X146558000Y-84450000D03*
X146558000Y-81910000D03*
X146558000Y-79370000D03*
X146558000Y-76830000D03*
D10*
X66802000Y-138430000D03*
D11*
X66802000Y-140970000D03*
X66802000Y-143510000D03*
X66802000Y-146050000D03*
X66802000Y-148590000D03*
X66802000Y-151130000D03*
X66802000Y-153670000D03*
X74422000Y-153670000D03*
X74422000Y-151130000D03*
X74422000Y-148590000D03*
X74422000Y-146050000D03*
X74422000Y-143510000D03*
X74422000Y-140970000D03*
X74422000Y-138430000D03*
D12*
X99060000Y-149586000D03*
X99060000Y-147086000D03*
D15*
X57150000Y-151892000D03*
D12*
X76581000Y-94996000D03*
D11*
X76581000Y-102616000D03*
D10*
X116332000Y-134874000D03*
D11*
X116332000Y-132334000D03*
X116332000Y-129794000D03*
X116332000Y-127254000D03*
X116332000Y-124714000D03*
X116332000Y-122174000D03*
X116332000Y-119634000D03*
X116332000Y-117094000D03*
X116332000Y-114554000D03*
X116332000Y-112014000D03*
X116332000Y-109474000D03*
X116332000Y-106934000D03*
X116332000Y-104394000D03*
X116332000Y-101854000D03*
X101092000Y-101854000D03*
X101092000Y-104394000D03*
X101092000Y-106934000D03*
X101092000Y-109474000D03*
X101092000Y-112014000D03*
X101092000Y-114554000D03*
X101092000Y-117094000D03*
X101092000Y-119634000D03*
X101092000Y-122174000D03*
X101092000Y-124714000D03*
X101092000Y-127254000D03*
X101092000Y-129794000D03*
X101092000Y-132334000D03*
X101092000Y-134874000D03*
D12*
X92182000Y-74676000D03*
X89682000Y-74676000D03*
D10*
X84582000Y-77724000D03*
D11*
X84582000Y-80264000D03*
X84582000Y-82804000D03*
X84582000Y-85344000D03*
X84582000Y-87884000D03*
X84582000Y-90424000D03*
X84582000Y-92964000D03*
X92202000Y-92964000D03*
X92202000Y-90424000D03*
X92202000Y-87884000D03*
X92202000Y-85344000D03*
X92202000Y-82804000D03*
X92202000Y-80264000D03*
X92202000Y-77724000D03*
D18*
X66040000Y-77216000D03*
D17*
X66040000Y-74676000D03*
X68580000Y-77216000D03*
X68580000Y-74676000D03*
X71120000Y-77216000D03*
X71120000Y-74676000D03*
X73660000Y-77216000D03*
X73660000Y-74676000D03*
X76200000Y-77216000D03*
X76200000Y-74676000D03*
D10*
X100340000Y-77719000D03*
D11*
X100340000Y-80259000D03*
X100340000Y-82799000D03*
X100340000Y-85339000D03*
X100340000Y-87879000D03*
X100340000Y-90419000D03*
X100340000Y-92959000D03*
X107960000Y-92959000D03*
X107960000Y-90419000D03*
X107960000Y-87879000D03*
X107960000Y-85339000D03*
X107960000Y-82799000D03*
X107960000Y-80259000D03*
X107960000Y-77719000D03*
D13*
X141732000Y-135382000D03*
D14*
X139192000Y-135382000D03*
D10*
X118877000Y-141996000D03*
D11*
X116337000Y-141996000D03*
X113797000Y-141996000D03*
X111257000Y-141996000D03*
X108717000Y-141996000D03*
X106177000Y-141996000D03*
X103637000Y-141996000D03*
X103637000Y-149616000D03*
X106177000Y-149616000D03*
X108717000Y-149616000D03*
X111257000Y-149616000D03*
X113797000Y-149616000D03*
X116337000Y-149616000D03*
X118877000Y-149616000D03*
D12*
X101112000Y-138176000D03*
X103612000Y-138176000D03*
D10*
X96017000Y-134889000D03*
D11*
X96017000Y-132349000D03*
X96017000Y-129809000D03*
X96017000Y-127269000D03*
X96017000Y-124729000D03*
X96017000Y-122189000D03*
X96017000Y-119649000D03*
X96017000Y-117109000D03*
X96017000Y-114569000D03*
X96017000Y-112029000D03*
X96017000Y-109489000D03*
X96017000Y-106949000D03*
X96017000Y-104409000D03*
X96017000Y-101869000D03*
X80777000Y-101869000D03*
X80777000Y-104409000D03*
X80777000Y-106949000D03*
X80777000Y-109489000D03*
X80777000Y-112029000D03*
X80777000Y-114569000D03*
X80777000Y-117109000D03*
X80777000Y-119649000D03*
X80777000Y-122189000D03*
X80777000Y-124729000D03*
X80777000Y-127269000D03*
X80777000Y-129809000D03*
X80777000Y-132349000D03*
X80777000Y-134889000D03*
D13*
X76581000Y-114681000D03*
D14*
X76581000Y-117221000D03*
D12*
X116332000Y-138303000D03*
D11*
X108712000Y-138303000D03*
D10*
X56637000Y-82804000D03*
D11*
X56637000Y-85344000D03*
X56637000Y-87884000D03*
X56637000Y-90424000D03*
X56637000Y-92964000D03*
X56637000Y-95504000D03*
X56637000Y-98044000D03*
X56637000Y-100584000D03*
X56637000Y-103124000D03*
X56637000Y-105664000D03*
X56637000Y-108204000D03*
X56637000Y-110744000D03*
X56637000Y-113284000D03*
X56637000Y-115824000D03*
X56637000Y-118364000D03*
X56637000Y-120904000D03*
X56637000Y-123444000D03*
X56637000Y-125984000D03*
X56637000Y-128524000D03*
X56637000Y-131064000D03*
X71877000Y-131064000D03*
X71877000Y-128524000D03*
X71877000Y-125984000D03*
X71877000Y-123444000D03*
X71877000Y-120904000D03*
X71877000Y-118364000D03*
X71877000Y-115824000D03*
X71877000Y-113284000D03*
X71877000Y-110744000D03*
X71877000Y-108204000D03*
X71877000Y-105664000D03*
X71877000Y-103124000D03*
X71877000Y-100584000D03*
X71877000Y-98044000D03*
X71877000Y-95504000D03*
X71877000Y-92964000D03*
X71877000Y-90424000D03*
X71877000Y-87884000D03*
X71877000Y-85344000D03*
X71877000Y-82804000D03*
M02*
