%TF.GenerationSoftware,KiCad,Pcbnew,(6.0.11)*%
%TF.CreationDate,2024-05-04T19:15:54+02:00*%
%TF.ProjectId,dolphindos3-kicad,646f6c70-6869-46e6-946f-73332d6b6963,2*%
%TF.SameCoordinates,Original*%
%TF.FileFunction,Drillmap*%
%TF.FilePolarity,Positive*%
%FSLAX45Y45*%
G04 Gerber Fmt 4.5, Leading zero omitted, Abs format (unit mm)*
G04 Created by KiCad (PCBNEW (6.0.11)) date 2024-05-04 19:15:54*
%MOMM*%
%LPD*%
G01*
G04 APERTURE LIST*
%ADD10C,0.050000*%
%ADD11C,0.200000*%
%ADD12C,0.040000*%
%ADD13C,0.080000*%
%ADD14C,0.100000*%
G04 APERTURE END LIST*
D10*
X5344160Y-7095490D02*
X15123160Y-7095490D01*
X15123160Y-7095490D02*
X15123160Y-15540990D01*
X15123160Y-15540990D02*
X5344160Y-15540990D01*
X5344160Y-15540990D02*
X5344160Y-7095490D01*
D11*
D12*
X5787460Y-8679570D02*
X5827460Y-8719570D01*
X5827460Y-8679570D02*
X5787460Y-8719570D01*
X5906740Y-8849950D02*
X5946740Y-8889950D01*
X5946740Y-8849950D02*
X5906740Y-8889950D01*
X6017410Y-8908780D02*
X6057410Y-8948780D01*
X6057410Y-8908780D02*
X6017410Y-8948780D01*
X6662590Y-8721620D02*
X6702590Y-8761620D01*
X6702590Y-8721620D02*
X6662590Y-8761620D01*
X6741190Y-8159170D02*
X6781190Y-8199170D01*
X6781190Y-8159170D02*
X6741190Y-8199170D01*
X6897060Y-8190380D02*
X6937060Y-8230380D01*
X6937060Y-8190380D02*
X6897060Y-8230380D01*
X6962280Y-11558290D02*
X7002280Y-11598290D01*
X7002280Y-11558290D02*
X6962280Y-11598290D01*
X7346170Y-11421090D02*
X7386170Y-11461090D01*
X7386170Y-11421090D02*
X7346170Y-11461090D01*
X7454740Y-10158820D02*
X7494740Y-10198820D01*
X7494740Y-10158820D02*
X7454740Y-10198820D01*
X7799250Y-10420280D02*
X7839250Y-10460280D01*
X7839250Y-10420280D02*
X7799250Y-10460280D01*
X7825810Y-13880810D02*
X7865810Y-13920810D01*
X7865810Y-13880810D02*
X7825810Y-13920810D01*
X7897490Y-10677290D02*
X7937490Y-10717290D01*
X7937490Y-10677290D02*
X7897490Y-10717290D01*
X7906190Y-14515110D02*
X7946190Y-14555110D01*
X7946190Y-14515110D02*
X7906190Y-14555110D01*
X7990940Y-8928410D02*
X8030940Y-8968410D01*
X8030940Y-8928410D02*
X7990940Y-8968410D01*
X8099670Y-8724220D02*
X8139670Y-8764220D01*
X8139670Y-8724220D02*
X8099670Y-8764220D01*
X8118140Y-14439600D02*
X8158140Y-14479600D01*
X8158140Y-14439600D02*
X8118140Y-14479600D01*
X8154250Y-9220850D02*
X8194250Y-9260850D01*
X8194250Y-9220850D02*
X8154250Y-9260850D01*
X8207340Y-10442060D02*
X8247340Y-10482060D01*
X8247340Y-10442060D02*
X8207340Y-10482060D01*
X8280040Y-10010630D02*
X8320040Y-10050630D01*
X8320040Y-10010630D02*
X8280040Y-10050630D01*
X8421090Y-9466080D02*
X8461090Y-9506080D01*
X8461090Y-9466080D02*
X8421090Y-9506080D01*
X8540010Y-10295930D02*
X8580010Y-10335930D01*
X8580010Y-10295930D02*
X8540010Y-10335930D01*
X8634580Y-11890160D02*
X8674580Y-11930160D01*
X8674580Y-11890160D02*
X8634580Y-11930160D01*
X8681970Y-9304810D02*
X8721970Y-9344810D01*
X8721970Y-9304810D02*
X8681970Y-9344810D01*
X8760220Y-9595670D02*
X8800220Y-9635670D01*
X8800220Y-9595670D02*
X8760220Y-9635670D01*
X8763010Y-13087780D02*
X8803010Y-13127780D01*
X8803010Y-13087780D02*
X8763010Y-13127780D01*
X8798600Y-9736920D02*
X8838600Y-9776920D01*
X8838600Y-9736920D02*
X8798600Y-9776920D01*
X8809510Y-9076210D02*
X8849510Y-9116210D01*
X8849510Y-9076210D02*
X8809510Y-9116210D01*
X8908110Y-9827990D02*
X8948110Y-9867990D01*
X8948110Y-9827990D02*
X8908110Y-9867990D01*
X8919390Y-8452640D02*
X8959390Y-8492640D01*
X8959390Y-8452640D02*
X8919390Y-8492640D01*
X8952600Y-9615620D02*
X8992600Y-9655620D01*
X8992600Y-9615620D02*
X8952600Y-9655620D01*
X8986750Y-9929560D02*
X9026750Y-9969560D01*
X9026750Y-9929560D02*
X8986750Y-9969560D01*
X9046440Y-9689660D02*
X9086440Y-9729660D01*
X9086440Y-9689660D02*
X9046440Y-9729660D01*
X9152040Y-12654400D02*
X9192040Y-12694400D01*
X9192040Y-12654400D02*
X9152040Y-12694400D01*
X9155650Y-10086070D02*
X9195650Y-10126070D01*
X9195650Y-10086070D02*
X9155650Y-10126070D01*
X9184450Y-10958410D02*
X9224450Y-10998410D01*
X9224450Y-10958410D02*
X9184450Y-10998410D01*
X9752390Y-11024860D02*
X9792390Y-11064860D01*
X9792390Y-11024860D02*
X9752390Y-11064860D01*
X9793630Y-10543740D02*
X9833630Y-10583740D01*
X9833630Y-10543740D02*
X9793630Y-10583740D01*
X9826060Y-11182900D02*
X9866060Y-11222900D01*
X9866060Y-11182900D02*
X9826060Y-11222900D01*
X9843430Y-14028450D02*
X9883430Y-14068450D01*
X9883430Y-14028450D02*
X9843430Y-14068450D01*
X9951820Y-14033620D02*
X9991820Y-14073620D01*
X9991820Y-14033620D02*
X9951820Y-14073620D01*
X10262240Y-11251880D02*
X10302240Y-11291880D01*
X10302240Y-11251880D02*
X10262240Y-11291880D01*
X10343700Y-14554390D02*
X10383700Y-14594390D01*
X10383700Y-14554390D02*
X10343700Y-14594390D01*
X10500990Y-8941500D02*
X10540990Y-8981500D01*
X10540990Y-8941500D02*
X10500990Y-8981500D01*
X11004130Y-10174130D02*
X11044130Y-10214130D01*
X11044130Y-10174130D02*
X11004130Y-10214130D01*
X11107660Y-10056140D02*
X11147660Y-10096140D01*
X11147660Y-10056140D02*
X11107660Y-10096140D01*
X11122490Y-13850860D02*
X11162490Y-13890860D01*
X11162490Y-13850860D02*
X11122490Y-13890860D01*
X11261040Y-10673310D02*
X11301040Y-10713310D01*
X11301040Y-10673310D02*
X11261040Y-10713310D01*
X11297720Y-12451400D02*
X11337720Y-12491400D01*
X11337720Y-12451400D02*
X11297720Y-12491400D01*
X11329550Y-13334890D02*
X11369550Y-13374890D01*
X11369550Y-13334890D02*
X11329550Y-13374890D01*
X11356820Y-14690600D02*
X11396820Y-14730600D01*
X11396820Y-14690600D02*
X11356820Y-14730600D01*
X11373830Y-13771670D02*
X11413830Y-13811670D01*
X11413830Y-13771670D02*
X11373830Y-13811670D01*
X11524310Y-9947800D02*
X11564310Y-9987800D01*
X11564310Y-9947800D02*
X11524310Y-9987800D01*
X11550100Y-14419550D02*
X11590100Y-14459550D01*
X11590100Y-14419550D02*
X11550100Y-14459550D01*
X11613700Y-15149730D02*
X11653700Y-15189730D01*
X11653700Y-15149730D02*
X11613700Y-15189730D01*
X11754430Y-11920580D02*
X11794430Y-11960580D01*
X11794430Y-11920580D02*
X11754430Y-11960580D01*
X11793970Y-12777650D02*
X11833970Y-12817650D01*
X11833970Y-12777650D02*
X11793970Y-12817650D01*
X11804050Y-12467620D02*
X11844050Y-12507620D01*
X11844050Y-12467620D02*
X11804050Y-12507620D01*
X11837220Y-9916840D02*
X11877220Y-9956840D01*
X11877220Y-9916840D02*
X11837220Y-9956840D01*
X11846250Y-9087690D02*
X11886250Y-9127690D01*
X11886250Y-9087690D02*
X11846250Y-9127690D01*
X11854770Y-13058780D02*
X11894770Y-13098780D01*
X11894770Y-13058780D02*
X11854770Y-13098780D01*
X11910210Y-8919010D02*
X11950210Y-8959010D01*
X11950210Y-8919010D02*
X11910210Y-8959010D01*
X11929450Y-12143410D02*
X11969450Y-12183410D01*
X11969450Y-12143410D02*
X11929450Y-12183410D01*
X11977680Y-9949000D02*
X12017680Y-9989000D01*
X12017680Y-9949000D02*
X11977680Y-9989000D01*
X12006720Y-11918240D02*
X12046720Y-11958240D01*
X12046720Y-11918240D02*
X12006720Y-11958240D01*
X12017060Y-11636070D02*
X12057060Y-11676070D01*
X12057060Y-11636070D02*
X12017060Y-11676070D01*
X12037440Y-13334890D02*
X12077440Y-13374890D01*
X12077440Y-13334890D02*
X12037440Y-13374890D01*
X12055670Y-12139080D02*
X12095670Y-12179080D01*
X12095670Y-12139080D02*
X12055670Y-12179080D01*
X12160350Y-14292290D02*
X12200350Y-14332290D01*
X12200350Y-14292290D02*
X12160350Y-14332290D01*
X12299010Y-9022210D02*
X12339010Y-9062210D01*
X12339010Y-9022210D02*
X12299010Y-9062210D01*
X12427520Y-12725740D02*
X12467520Y-12765740D01*
X12467520Y-12725740D02*
X12427520Y-12765740D01*
X12492890Y-14322140D02*
X12532890Y-14362140D01*
X12532890Y-14322140D02*
X12492890Y-14362140D01*
X12527050Y-12875970D02*
X12567050Y-12915970D01*
X12567050Y-12875970D02*
X12527050Y-12915970D01*
X12572610Y-12235560D02*
X12612610Y-12275560D01*
X12612610Y-12235560D02*
X12572610Y-12275560D01*
X12636300Y-8869360D02*
X12676300Y-8909360D01*
X12676300Y-8869360D02*
X12636300Y-8909360D01*
X12645280Y-12653170D02*
X12685280Y-12693170D01*
X12685280Y-12653170D02*
X12645280Y-12693170D01*
X12798600Y-12748250D02*
X12838600Y-12788250D01*
X12838600Y-12748250D02*
X12798600Y-12788250D01*
X12844580Y-11727000D02*
X12884580Y-11767000D01*
X12884580Y-11727000D02*
X12844580Y-11767000D01*
X12896010Y-12563620D02*
X12936010Y-12603620D01*
X12936010Y-12563620D02*
X12896010Y-12603620D01*
X12967140Y-12309060D02*
X13007140Y-12349060D01*
X13007140Y-12309060D02*
X12967140Y-12349060D01*
X13166690Y-13153580D02*
X13206690Y-13193580D01*
X13206690Y-13153580D02*
X13166690Y-13193580D01*
X13300500Y-12587340D02*
X13340500Y-12627340D01*
X13340500Y-12587340D02*
X13300500Y-12627340D01*
X13360300Y-12686500D02*
X13400300Y-12726500D01*
X13400300Y-12686500D02*
X13360300Y-12726500D01*
X13456510Y-13063910D02*
X13496510Y-13103910D01*
X13496510Y-13063910D02*
X13456510Y-13103910D01*
X13468850Y-12741620D02*
X13508850Y-12781620D01*
X13508850Y-12741620D02*
X13468850Y-12781620D01*
X13541950Y-9863090D02*
X13581950Y-9903090D01*
X13581950Y-9863090D02*
X13541950Y-9903090D01*
X13846180Y-13348170D02*
X13886180Y-13388170D01*
X13886180Y-13348170D02*
X13846180Y-13388170D01*
X14026200Y-15149730D02*
X14066200Y-15189730D01*
X14066200Y-15149730D02*
X14026200Y-15189730D01*
D13*
X5703700Y-8280400D02*
G75*
G03*
X5703700Y-8280400I-40000J0D01*
G01*
X5703700Y-8534400D02*
G75*
G03*
X5703700Y-8534400I-40000J0D01*
G01*
X5703700Y-8788400D02*
G75*
G03*
X5703700Y-8788400I-40000J0D01*
G01*
X5703700Y-9042400D02*
G75*
G03*
X5703700Y-9042400I-40000J0D01*
G01*
X5703700Y-9296400D02*
G75*
G03*
X5703700Y-9296400I-40000J0D01*
G01*
X5703700Y-9550400D02*
G75*
G03*
X5703700Y-9550400I-40000J0D01*
G01*
X5703700Y-9804400D02*
G75*
G03*
X5703700Y-9804400I-40000J0D01*
G01*
X5703700Y-10058400D02*
G75*
G03*
X5703700Y-10058400I-40000J0D01*
G01*
X5703700Y-10312400D02*
G75*
G03*
X5703700Y-10312400I-40000J0D01*
G01*
X5703700Y-10566400D02*
G75*
G03*
X5703700Y-10566400I-40000J0D01*
G01*
X5703700Y-10820400D02*
G75*
G03*
X5703700Y-10820400I-40000J0D01*
G01*
X5703700Y-11074400D02*
G75*
G03*
X5703700Y-11074400I-40000J0D01*
G01*
X5703700Y-11328400D02*
G75*
G03*
X5703700Y-11328400I-40000J0D01*
G01*
X5703700Y-11582400D02*
G75*
G03*
X5703700Y-11582400I-40000J0D01*
G01*
X5703700Y-11836400D02*
G75*
G03*
X5703700Y-11836400I-40000J0D01*
G01*
X5703700Y-12090400D02*
G75*
G03*
X5703700Y-12090400I-40000J0D01*
G01*
X5703700Y-12344400D02*
G75*
G03*
X5703700Y-12344400I-40000J0D01*
G01*
X5703700Y-12598400D02*
G75*
G03*
X5703700Y-12598400I-40000J0D01*
G01*
X5703700Y-12852400D02*
G75*
G03*
X5703700Y-12852400I-40000J0D01*
G01*
X5703700Y-13106400D02*
G75*
G03*
X5703700Y-13106400I-40000J0D01*
G01*
X5704200Y-13387800D02*
G75*
G03*
X5704200Y-13387800I-40000J0D01*
G01*
X5704200Y-13637800D02*
G75*
G03*
X5704200Y-13637800I-40000J0D01*
G01*
X6288400Y-13385800D02*
G75*
G03*
X6288400Y-13385800I-40000J0D01*
G01*
X6288400Y-14147800D02*
G75*
G03*
X6288400Y-14147800I-40000J0D01*
G01*
X6720200Y-13843000D02*
G75*
G03*
X6720200Y-13843000I-40000J0D01*
G01*
X6720200Y-14097000D02*
G75*
G03*
X6720200Y-14097000I-40000J0D01*
G01*
X6720200Y-14351000D02*
G75*
G03*
X6720200Y-14351000I-40000J0D01*
G01*
X6720200Y-14605000D02*
G75*
G03*
X6720200Y-14605000I-40000J0D01*
G01*
X6720200Y-14859000D02*
G75*
G03*
X6720200Y-14859000I-40000J0D01*
G01*
X6720200Y-15113000D02*
G75*
G03*
X6720200Y-15113000I-40000J0D01*
G01*
X6720200Y-15367000D02*
G75*
G03*
X6720200Y-15367000I-40000J0D01*
G01*
X7227700Y-8280400D02*
G75*
G03*
X7227700Y-8280400I-40000J0D01*
G01*
X7227700Y-8534400D02*
G75*
G03*
X7227700Y-8534400I-40000J0D01*
G01*
X7227700Y-8788400D02*
G75*
G03*
X7227700Y-8788400I-40000J0D01*
G01*
X7227700Y-9042400D02*
G75*
G03*
X7227700Y-9042400I-40000J0D01*
G01*
X7227700Y-9296400D02*
G75*
G03*
X7227700Y-9296400I-40000J0D01*
G01*
X7227700Y-9550400D02*
G75*
G03*
X7227700Y-9550400I-40000J0D01*
G01*
X7227700Y-9804400D02*
G75*
G03*
X7227700Y-9804400I-40000J0D01*
G01*
X7227700Y-10058400D02*
G75*
G03*
X7227700Y-10058400I-40000J0D01*
G01*
X7227700Y-10312400D02*
G75*
G03*
X7227700Y-10312400I-40000J0D01*
G01*
X7227700Y-10566400D02*
G75*
G03*
X7227700Y-10566400I-40000J0D01*
G01*
X7227700Y-10820400D02*
G75*
G03*
X7227700Y-10820400I-40000J0D01*
G01*
X7227700Y-11074400D02*
G75*
G03*
X7227700Y-11074400I-40000J0D01*
G01*
X7227700Y-11328400D02*
G75*
G03*
X7227700Y-11328400I-40000J0D01*
G01*
X7227700Y-11582400D02*
G75*
G03*
X7227700Y-11582400I-40000J0D01*
G01*
X7227700Y-11836400D02*
G75*
G03*
X7227700Y-11836400I-40000J0D01*
G01*
X7227700Y-12090400D02*
G75*
G03*
X7227700Y-12090400I-40000J0D01*
G01*
X7227700Y-12344400D02*
G75*
G03*
X7227700Y-12344400I-40000J0D01*
G01*
X7227700Y-12598400D02*
G75*
G03*
X7227700Y-12598400I-40000J0D01*
G01*
X7227700Y-12852400D02*
G75*
G03*
X7227700Y-12852400I-40000J0D01*
G01*
X7227700Y-13106400D02*
G75*
G03*
X7227700Y-13106400I-40000J0D01*
G01*
X7229700Y-13538200D02*
G75*
G03*
X7229700Y-13538200I-40000J0D01*
G01*
X7479700Y-13538200D02*
G75*
G03*
X7479700Y-13538200I-40000J0D01*
G01*
X7482200Y-13843000D02*
G75*
G03*
X7482200Y-13843000I-40000J0D01*
G01*
X7482200Y-14097000D02*
G75*
G03*
X7482200Y-14097000I-40000J0D01*
G01*
X7482200Y-14351000D02*
G75*
G03*
X7482200Y-14351000I-40000J0D01*
G01*
X7482200Y-14605000D02*
G75*
G03*
X7482200Y-14605000I-40000J0D01*
G01*
X7482200Y-14859000D02*
G75*
G03*
X7482200Y-14859000I-40000J0D01*
G01*
X7482200Y-15113000D02*
G75*
G03*
X7482200Y-15113000I-40000J0D01*
G01*
X7482200Y-15367000D02*
G75*
G03*
X7482200Y-15367000I-40000J0D01*
G01*
X7698100Y-9499600D02*
G75*
G03*
X7698100Y-9499600I-40000J0D01*
G01*
X7698100Y-10261600D02*
G75*
G03*
X7698100Y-10261600I-40000J0D01*
G01*
X7710800Y-12026900D02*
G75*
G03*
X7710800Y-12026900I-40000J0D01*
G01*
X7710800Y-12788900D02*
G75*
G03*
X7710800Y-12788900I-40000J0D01*
G01*
X8117200Y-13817600D02*
G75*
G03*
X8117200Y-13817600I-40000J0D01*
G01*
X8117200Y-14198600D02*
G75*
G03*
X8117200Y-14198600I-40000J0D01*
G01*
X8117200Y-14960600D02*
G75*
G03*
X8117200Y-14960600I-40000J0D01*
G01*
X8117700Y-10186900D02*
G75*
G03*
X8117700Y-10186900I-40000J0D01*
G01*
X8117700Y-10440900D02*
G75*
G03*
X8117700Y-10440900I-40000J0D01*
G01*
X8117700Y-10694900D02*
G75*
G03*
X8117700Y-10694900I-40000J0D01*
G01*
X8117700Y-10948900D02*
G75*
G03*
X8117700Y-10948900I-40000J0D01*
G01*
X8117700Y-11202900D02*
G75*
G03*
X8117700Y-11202900I-40000J0D01*
G01*
X8117700Y-11456900D02*
G75*
G03*
X8117700Y-11456900I-40000J0D01*
G01*
X8117700Y-11710900D02*
G75*
G03*
X8117700Y-11710900I-40000J0D01*
G01*
X8117700Y-11964900D02*
G75*
G03*
X8117700Y-11964900I-40000J0D01*
G01*
X8117700Y-12218900D02*
G75*
G03*
X8117700Y-12218900I-40000J0D01*
G01*
X8117700Y-12472900D02*
G75*
G03*
X8117700Y-12472900I-40000J0D01*
G01*
X8117700Y-12726900D02*
G75*
G03*
X8117700Y-12726900I-40000J0D01*
G01*
X8117700Y-12980900D02*
G75*
G03*
X8117700Y-12980900I-40000J0D01*
G01*
X8117700Y-13234900D02*
G75*
G03*
X8117700Y-13234900I-40000J0D01*
G01*
X8117700Y-13488900D02*
G75*
G03*
X8117700Y-13488900I-40000J0D01*
G01*
X8367200Y-13817600D02*
G75*
G03*
X8367200Y-13817600I-40000J0D01*
G01*
X8371200Y-14198600D02*
G75*
G03*
X8371200Y-14198600I-40000J0D01*
G01*
X8371200Y-14960600D02*
G75*
G03*
X8371200Y-14960600I-40000J0D01*
G01*
X8498200Y-7772400D02*
G75*
G03*
X8498200Y-7772400I-40000J0D01*
G01*
X8498200Y-8026400D02*
G75*
G03*
X8498200Y-8026400I-40000J0D01*
G01*
X8498200Y-8280400D02*
G75*
G03*
X8498200Y-8280400I-40000J0D01*
G01*
X8498200Y-8534400D02*
G75*
G03*
X8498200Y-8534400I-40000J0D01*
G01*
X8498200Y-8788400D02*
G75*
G03*
X8498200Y-8788400I-40000J0D01*
G01*
X8498200Y-9042400D02*
G75*
G03*
X8498200Y-9042400I-40000J0D01*
G01*
X8498200Y-9296400D02*
G75*
G03*
X8498200Y-9296400I-40000J0D01*
G01*
X8625200Y-14198600D02*
G75*
G03*
X8625200Y-14198600I-40000J0D01*
G01*
X8625200Y-14960600D02*
G75*
G03*
X8625200Y-14960600I-40000J0D01*
G01*
X8879200Y-14198600D02*
G75*
G03*
X8879200Y-14198600I-40000J0D01*
G01*
X8879200Y-14960600D02*
G75*
G03*
X8879200Y-14960600I-40000J0D01*
G01*
X9008200Y-7467600D02*
G75*
G03*
X9008200Y-7467600I-40000J0D01*
G01*
X9133200Y-14198600D02*
G75*
G03*
X9133200Y-14198600I-40000J0D01*
G01*
X9133200Y-14960600D02*
G75*
G03*
X9133200Y-14960600I-40000J0D01*
G01*
X9258200Y-7467600D02*
G75*
G03*
X9258200Y-7467600I-40000J0D01*
G01*
X9260200Y-7772400D02*
G75*
G03*
X9260200Y-7772400I-40000J0D01*
G01*
X9260200Y-8026400D02*
G75*
G03*
X9260200Y-8026400I-40000J0D01*
G01*
X9260200Y-8280400D02*
G75*
G03*
X9260200Y-8280400I-40000J0D01*
G01*
X9260200Y-8534400D02*
G75*
G03*
X9260200Y-8534400I-40000J0D01*
G01*
X9260200Y-8788400D02*
G75*
G03*
X9260200Y-8788400I-40000J0D01*
G01*
X9260200Y-9042400D02*
G75*
G03*
X9260200Y-9042400I-40000J0D01*
G01*
X9260200Y-9296400D02*
G75*
G03*
X9260200Y-9296400I-40000J0D01*
G01*
X9387200Y-14198600D02*
G75*
G03*
X9387200Y-14198600I-40000J0D01*
G01*
X9387200Y-14960600D02*
G75*
G03*
X9387200Y-14960600I-40000J0D01*
G01*
X9641200Y-14198600D02*
G75*
G03*
X9641200Y-14198600I-40000J0D01*
G01*
X9641200Y-14960600D02*
G75*
G03*
X9641200Y-14960600I-40000J0D01*
G01*
X9641700Y-10186900D02*
G75*
G03*
X9641700Y-10186900I-40000J0D01*
G01*
X9641700Y-10440900D02*
G75*
G03*
X9641700Y-10440900I-40000J0D01*
G01*
X9641700Y-10694900D02*
G75*
G03*
X9641700Y-10694900I-40000J0D01*
G01*
X9641700Y-10948900D02*
G75*
G03*
X9641700Y-10948900I-40000J0D01*
G01*
X9641700Y-11202900D02*
G75*
G03*
X9641700Y-11202900I-40000J0D01*
G01*
X9641700Y-11456900D02*
G75*
G03*
X9641700Y-11456900I-40000J0D01*
G01*
X9641700Y-11710900D02*
G75*
G03*
X9641700Y-11710900I-40000J0D01*
G01*
X9641700Y-11964900D02*
G75*
G03*
X9641700Y-11964900I-40000J0D01*
G01*
X9641700Y-12218900D02*
G75*
G03*
X9641700Y-12218900I-40000J0D01*
G01*
X9641700Y-12472900D02*
G75*
G03*
X9641700Y-12472900I-40000J0D01*
G01*
X9641700Y-12726900D02*
G75*
G03*
X9641700Y-12726900I-40000J0D01*
G01*
X9641700Y-12980900D02*
G75*
G03*
X9641700Y-12980900I-40000J0D01*
G01*
X9641700Y-13234900D02*
G75*
G03*
X9641700Y-13234900I-40000J0D01*
G01*
X9641700Y-13488900D02*
G75*
G03*
X9641700Y-13488900I-40000J0D01*
G01*
X9946000Y-14708600D02*
G75*
G03*
X9946000Y-14708600I-40000J0D01*
G01*
X9946000Y-14958600D02*
G75*
G03*
X9946000Y-14958600I-40000J0D01*
G01*
X10074000Y-7771900D02*
G75*
G03*
X10074000Y-7771900I-40000J0D01*
G01*
X10074000Y-8025900D02*
G75*
G03*
X10074000Y-8025900I-40000J0D01*
G01*
X10074000Y-8279900D02*
G75*
G03*
X10074000Y-8279900I-40000J0D01*
G01*
X10074000Y-8533900D02*
G75*
G03*
X10074000Y-8533900I-40000J0D01*
G01*
X10074000Y-8787900D02*
G75*
G03*
X10074000Y-8787900I-40000J0D01*
G01*
X10074000Y-9041900D02*
G75*
G03*
X10074000Y-9041900I-40000J0D01*
G01*
X10074000Y-9295900D02*
G75*
G03*
X10074000Y-9295900I-40000J0D01*
G01*
X10149200Y-10185400D02*
G75*
G03*
X10149200Y-10185400I-40000J0D01*
G01*
X10149200Y-10439400D02*
G75*
G03*
X10149200Y-10439400I-40000J0D01*
G01*
X10149200Y-10693400D02*
G75*
G03*
X10149200Y-10693400I-40000J0D01*
G01*
X10149200Y-10947400D02*
G75*
G03*
X10149200Y-10947400I-40000J0D01*
G01*
X10149200Y-11201400D02*
G75*
G03*
X10149200Y-11201400I-40000J0D01*
G01*
X10149200Y-11455400D02*
G75*
G03*
X10149200Y-11455400I-40000J0D01*
G01*
X10149200Y-11709400D02*
G75*
G03*
X10149200Y-11709400I-40000J0D01*
G01*
X10149200Y-11963400D02*
G75*
G03*
X10149200Y-11963400I-40000J0D01*
G01*
X10149200Y-12217400D02*
G75*
G03*
X10149200Y-12217400I-40000J0D01*
G01*
X10149200Y-12471400D02*
G75*
G03*
X10149200Y-12471400I-40000J0D01*
G01*
X10149200Y-12725400D02*
G75*
G03*
X10149200Y-12725400I-40000J0D01*
G01*
X10149200Y-12979400D02*
G75*
G03*
X10149200Y-12979400I-40000J0D01*
G01*
X10149200Y-13233400D02*
G75*
G03*
X10149200Y-13233400I-40000J0D01*
G01*
X10149200Y-13487400D02*
G75*
G03*
X10149200Y-13487400I-40000J0D01*
G01*
X10151200Y-13817600D02*
G75*
G03*
X10151200Y-13817600I-40000J0D01*
G01*
X10401200Y-13817600D02*
G75*
G03*
X10401200Y-13817600I-40000J0D01*
G01*
X10403700Y-14199600D02*
G75*
G03*
X10403700Y-14199600I-40000J0D01*
G01*
X10403700Y-14961600D02*
G75*
G03*
X10403700Y-14961600I-40000J0D01*
G01*
X10583000Y-7467600D02*
G75*
G03*
X10583000Y-7467600I-40000J0D01*
G01*
X10657700Y-14199600D02*
G75*
G03*
X10657700Y-14199600I-40000J0D01*
G01*
X10657700Y-14961600D02*
G75*
G03*
X10657700Y-14961600I-40000J0D01*
G01*
X10833000Y-7467600D02*
G75*
G03*
X10833000Y-7467600I-40000J0D01*
G01*
X10836000Y-7771900D02*
G75*
G03*
X10836000Y-7771900I-40000J0D01*
G01*
X10836000Y-8025900D02*
G75*
G03*
X10836000Y-8025900I-40000J0D01*
G01*
X10836000Y-8279900D02*
G75*
G03*
X10836000Y-8279900I-40000J0D01*
G01*
X10836000Y-8533900D02*
G75*
G03*
X10836000Y-8533900I-40000J0D01*
G01*
X10836000Y-8787900D02*
G75*
G03*
X10836000Y-8787900I-40000J0D01*
G01*
X10836000Y-9041900D02*
G75*
G03*
X10836000Y-9041900I-40000J0D01*
G01*
X10836000Y-9295900D02*
G75*
G03*
X10836000Y-9295900I-40000J0D01*
G01*
X10911200Y-13830300D02*
G75*
G03*
X10911200Y-13830300I-40000J0D01*
G01*
X10911700Y-14199600D02*
G75*
G03*
X10911700Y-14199600I-40000J0D01*
G01*
X10911700Y-14961600D02*
G75*
G03*
X10911700Y-14961600I-40000J0D01*
G01*
X11165700Y-14199600D02*
G75*
G03*
X11165700Y-14199600I-40000J0D01*
G01*
X11165700Y-14961600D02*
G75*
G03*
X11165700Y-14961600I-40000J0D01*
G01*
X11419700Y-14199600D02*
G75*
G03*
X11419700Y-14199600I-40000J0D01*
G01*
X11419700Y-14961600D02*
G75*
G03*
X11419700Y-14961600I-40000J0D01*
G01*
X11673200Y-10185400D02*
G75*
G03*
X11673200Y-10185400I-40000J0D01*
G01*
X11673200Y-10439400D02*
G75*
G03*
X11673200Y-10439400I-40000J0D01*
G01*
X11673200Y-10693400D02*
G75*
G03*
X11673200Y-10693400I-40000J0D01*
G01*
X11673200Y-10947400D02*
G75*
G03*
X11673200Y-10947400I-40000J0D01*
G01*
X11673200Y-11201400D02*
G75*
G03*
X11673200Y-11201400I-40000J0D01*
G01*
X11673200Y-11455400D02*
G75*
G03*
X11673200Y-11455400I-40000J0D01*
G01*
X11673200Y-11709400D02*
G75*
G03*
X11673200Y-11709400I-40000J0D01*
G01*
X11673200Y-11963400D02*
G75*
G03*
X11673200Y-11963400I-40000J0D01*
G01*
X11673200Y-12217400D02*
G75*
G03*
X11673200Y-12217400I-40000J0D01*
G01*
X11673200Y-12471400D02*
G75*
G03*
X11673200Y-12471400I-40000J0D01*
G01*
X11673200Y-12725400D02*
G75*
G03*
X11673200Y-12725400I-40000J0D01*
G01*
X11673200Y-12979400D02*
G75*
G03*
X11673200Y-12979400I-40000J0D01*
G01*
X11673200Y-13233400D02*
G75*
G03*
X11673200Y-13233400I-40000J0D01*
G01*
X11673200Y-13487400D02*
G75*
G03*
X11673200Y-13487400I-40000J0D01*
G01*
X11673200Y-13830300D02*
G75*
G03*
X11673200Y-13830300I-40000J0D01*
G01*
X11673700Y-14199600D02*
G75*
G03*
X11673700Y-14199600I-40000J0D01*
G01*
X11673700Y-14961600D02*
G75*
G03*
X11673700Y-14961600I-40000J0D01*
G01*
X11927700Y-14199600D02*
G75*
G03*
X11927700Y-14199600I-40000J0D01*
G01*
X11927700Y-14961600D02*
G75*
G03*
X11927700Y-14961600I-40000J0D01*
G01*
X12232000Y-14710600D02*
G75*
G03*
X12232000Y-14710600I-40000J0D01*
G01*
X12232000Y-14960600D02*
G75*
G03*
X12232000Y-14960600I-40000J0D01*
G01*
X12689200Y-14199600D02*
G75*
G03*
X12689200Y-14199600I-40000J0D01*
G01*
X12689200Y-14961600D02*
G75*
G03*
X12689200Y-14961600I-40000J0D01*
G01*
X12691200Y-13893800D02*
G75*
G03*
X12691200Y-13893800I-40000J0D01*
G01*
X12941200Y-13893800D02*
G75*
G03*
X12941200Y-13893800I-40000J0D01*
G01*
X12943200Y-14199600D02*
G75*
G03*
X12943200Y-14199600I-40000J0D01*
G01*
X12943200Y-14961600D02*
G75*
G03*
X12943200Y-14961600I-40000J0D01*
G01*
X13171800Y-7683000D02*
G75*
G03*
X13171800Y-7683000I-40000J0D01*
G01*
X13171800Y-7937000D02*
G75*
G03*
X13171800Y-7937000I-40000J0D01*
G01*
X13171800Y-8191000D02*
G75*
G03*
X13171800Y-8191000I-40000J0D01*
G01*
X13171800Y-8445000D02*
G75*
G03*
X13171800Y-8445000I-40000J0D01*
G01*
X13171800Y-8699000D02*
G75*
G03*
X13171800Y-8699000I-40000J0D01*
G01*
X13171800Y-8953000D02*
G75*
G03*
X13171800Y-8953000I-40000J0D01*
G01*
X13171800Y-9207000D02*
G75*
G03*
X13171800Y-9207000I-40000J0D01*
G01*
X13171800Y-9461000D02*
G75*
G03*
X13171800Y-9461000I-40000J0D01*
G01*
X13171800Y-9715000D02*
G75*
G03*
X13171800Y-9715000I-40000J0D01*
G01*
X13171800Y-9969000D02*
G75*
G03*
X13171800Y-9969000I-40000J0D01*
G01*
X13171800Y-10223000D02*
G75*
G03*
X13171800Y-10223000I-40000J0D01*
G01*
X13171800Y-10477000D02*
G75*
G03*
X13171800Y-10477000I-40000J0D01*
G01*
X13171800Y-10731000D02*
G75*
G03*
X13171800Y-10731000I-40000J0D01*
G01*
X13171800Y-10985000D02*
G75*
G03*
X13171800Y-10985000I-40000J0D01*
G01*
X13171800Y-11239000D02*
G75*
G03*
X13171800Y-11239000I-40000J0D01*
G01*
X13171800Y-11493000D02*
G75*
G03*
X13171800Y-11493000I-40000J0D01*
G01*
X13171800Y-11747000D02*
G75*
G03*
X13171800Y-11747000I-40000J0D01*
G01*
X13171800Y-12001000D02*
G75*
G03*
X13171800Y-12001000I-40000J0D01*
G01*
X13171800Y-12255000D02*
G75*
G03*
X13171800Y-12255000I-40000J0D01*
G01*
X13171800Y-12509000D02*
G75*
G03*
X13171800Y-12509000I-40000J0D01*
G01*
X13197200Y-14199600D02*
G75*
G03*
X13197200Y-14199600I-40000J0D01*
G01*
X13197200Y-14961600D02*
G75*
G03*
X13197200Y-14961600I-40000J0D01*
G01*
X13451200Y-14199600D02*
G75*
G03*
X13451200Y-14199600I-40000J0D01*
G01*
X13451200Y-14961600D02*
G75*
G03*
X13451200Y-14961600I-40000J0D01*
G01*
X13476100Y-7683500D02*
G75*
G03*
X13476100Y-7683500I-40000J0D01*
G01*
X13476100Y-7937500D02*
G75*
G03*
X13476100Y-7937500I-40000J0D01*
G01*
X13476100Y-8191500D02*
G75*
G03*
X13476100Y-8191500I-40000J0D01*
G01*
X13476100Y-8445500D02*
G75*
G03*
X13476100Y-8445500I-40000J0D01*
G01*
X13476100Y-8699500D02*
G75*
G03*
X13476100Y-8699500I-40000J0D01*
G01*
X13476100Y-8953500D02*
G75*
G03*
X13476100Y-8953500I-40000J0D01*
G01*
X13476100Y-9207500D02*
G75*
G03*
X13476100Y-9207500I-40000J0D01*
G01*
X13476100Y-9461500D02*
G75*
G03*
X13476100Y-9461500I-40000J0D01*
G01*
X13476100Y-9715500D02*
G75*
G03*
X13476100Y-9715500I-40000J0D01*
G01*
X13476100Y-9969500D02*
G75*
G03*
X13476100Y-9969500I-40000J0D01*
G01*
X13476100Y-10223500D02*
G75*
G03*
X13476100Y-10223500I-40000J0D01*
G01*
X13476100Y-10477500D02*
G75*
G03*
X13476100Y-10477500I-40000J0D01*
G01*
X13476100Y-10731500D02*
G75*
G03*
X13476100Y-10731500I-40000J0D01*
G01*
X13476100Y-10985500D02*
G75*
G03*
X13476100Y-10985500I-40000J0D01*
G01*
X13476100Y-11239500D02*
G75*
G03*
X13476100Y-11239500I-40000J0D01*
G01*
X13476100Y-11493500D02*
G75*
G03*
X13476100Y-11493500I-40000J0D01*
G01*
X13476100Y-11747500D02*
G75*
G03*
X13476100Y-11747500I-40000J0D01*
G01*
X13476100Y-12001500D02*
G75*
G03*
X13476100Y-12001500I-40000J0D01*
G01*
X13476100Y-12255500D02*
G75*
G03*
X13476100Y-12255500I-40000J0D01*
G01*
X13476100Y-12509500D02*
G75*
G03*
X13476100Y-12509500I-40000J0D01*
G01*
X13705200Y-14199600D02*
G75*
G03*
X13705200Y-14199600I-40000J0D01*
G01*
X13705200Y-14961600D02*
G75*
G03*
X13705200Y-14961600I-40000J0D01*
G01*
X13959200Y-14199600D02*
G75*
G03*
X13959200Y-14199600I-40000J0D01*
G01*
X13959200Y-14961600D02*
G75*
G03*
X13959200Y-14961600I-40000J0D01*
G01*
X14213200Y-14199600D02*
G75*
G03*
X14213200Y-14199600I-40000J0D01*
G01*
X14213200Y-14961600D02*
G75*
G03*
X14213200Y-14961600I-40000J0D01*
G01*
X14695800Y-7683000D02*
G75*
G03*
X14695800Y-7683000I-40000J0D01*
G01*
X14695800Y-7937000D02*
G75*
G03*
X14695800Y-7937000I-40000J0D01*
G01*
X14695800Y-8191000D02*
G75*
G03*
X14695800Y-8191000I-40000J0D01*
G01*
X14695800Y-8445000D02*
G75*
G03*
X14695800Y-8445000I-40000J0D01*
G01*
X14695800Y-8699000D02*
G75*
G03*
X14695800Y-8699000I-40000J0D01*
G01*
X14695800Y-8953000D02*
G75*
G03*
X14695800Y-8953000I-40000J0D01*
G01*
X14695800Y-9207000D02*
G75*
G03*
X14695800Y-9207000I-40000J0D01*
G01*
X14695800Y-9461000D02*
G75*
G03*
X14695800Y-9461000I-40000J0D01*
G01*
X14695800Y-9715000D02*
G75*
G03*
X14695800Y-9715000I-40000J0D01*
G01*
X14695800Y-9969000D02*
G75*
G03*
X14695800Y-9969000I-40000J0D01*
G01*
X14695800Y-10223000D02*
G75*
G03*
X14695800Y-10223000I-40000J0D01*
G01*
X14695800Y-10477000D02*
G75*
G03*
X14695800Y-10477000I-40000J0D01*
G01*
X14695800Y-10731000D02*
G75*
G03*
X14695800Y-10731000I-40000J0D01*
G01*
X14695800Y-10985000D02*
G75*
G03*
X14695800Y-10985000I-40000J0D01*
G01*
X14695800Y-11239000D02*
G75*
G03*
X14695800Y-11239000I-40000J0D01*
G01*
X14695800Y-11493000D02*
G75*
G03*
X14695800Y-11493000I-40000J0D01*
G01*
X14695800Y-11747000D02*
G75*
G03*
X14695800Y-11747000I-40000J0D01*
G01*
X14695800Y-12001000D02*
G75*
G03*
X14695800Y-12001000I-40000J0D01*
G01*
X14695800Y-12255000D02*
G75*
G03*
X14695800Y-12255000I-40000J0D01*
G01*
X14695800Y-12509000D02*
G75*
G03*
X14695800Y-12509000I-40000J0D01*
G01*
X15000100Y-7683500D02*
G75*
G03*
X15000100Y-7683500I-40000J0D01*
G01*
X15000100Y-7937500D02*
G75*
G03*
X15000100Y-7937500I-40000J0D01*
G01*
X15000100Y-8191500D02*
G75*
G03*
X15000100Y-8191500I-40000J0D01*
G01*
X15000100Y-8445500D02*
G75*
G03*
X15000100Y-8445500I-40000J0D01*
G01*
X15000100Y-8699500D02*
G75*
G03*
X15000100Y-8699500I-40000J0D01*
G01*
X15000100Y-8953500D02*
G75*
G03*
X15000100Y-8953500I-40000J0D01*
G01*
X15000100Y-9207500D02*
G75*
G03*
X15000100Y-9207500I-40000J0D01*
G01*
X15000100Y-9461500D02*
G75*
G03*
X15000100Y-9461500I-40000J0D01*
G01*
X15000100Y-9715500D02*
G75*
G03*
X15000100Y-9715500I-40000J0D01*
G01*
X15000100Y-9969500D02*
G75*
G03*
X15000100Y-9969500I-40000J0D01*
G01*
X15000100Y-10223500D02*
G75*
G03*
X15000100Y-10223500I-40000J0D01*
G01*
X15000100Y-10477500D02*
G75*
G03*
X15000100Y-10477500I-40000J0D01*
G01*
X15000100Y-10731500D02*
G75*
G03*
X15000100Y-10731500I-40000J0D01*
G01*
X15000100Y-10985500D02*
G75*
G03*
X15000100Y-10985500I-40000J0D01*
G01*
X15000100Y-11239500D02*
G75*
G03*
X15000100Y-11239500I-40000J0D01*
G01*
X15000100Y-11493500D02*
G75*
G03*
X15000100Y-11493500I-40000J0D01*
G01*
X15000100Y-11747500D02*
G75*
G03*
X15000100Y-11747500I-40000J0D01*
G01*
X15000100Y-12001500D02*
G75*
G03*
X15000100Y-12001500I-40000J0D01*
G01*
X15000100Y-12255500D02*
G75*
G03*
X15000100Y-12255500I-40000J0D01*
G01*
X15000100Y-12509500D02*
G75*
G03*
X15000100Y-12509500I-40000J0D01*
G01*
D14*
X5664200Y-14097800D02*
X5664200Y-14197800D01*
X5614200Y-14147800D02*
X5714200Y-14147800D01*
X5664200Y-14351800D02*
X5664200Y-14451800D01*
X5614200Y-14401800D02*
X5714200Y-14401800D01*
X6604000Y-7417600D02*
X6604000Y-7517600D01*
X6554000Y-7467600D02*
X6654000Y-7467600D01*
X6604000Y-7671600D02*
X6604000Y-7771600D01*
X6554000Y-7721600D02*
X6654000Y-7721600D01*
X6858000Y-7417600D02*
X6858000Y-7517600D01*
X6808000Y-7467600D02*
X6908000Y-7467600D01*
X6858000Y-7671600D02*
X6858000Y-7771600D01*
X6808000Y-7721600D02*
X6908000Y-7721600D01*
X7112000Y-7417600D02*
X7112000Y-7517600D01*
X7062000Y-7467600D02*
X7162000Y-7467600D01*
X7112000Y-7671600D02*
X7112000Y-7771600D01*
X7062000Y-7721600D02*
X7162000Y-7721600D01*
X7366000Y-7417600D02*
X7366000Y-7517600D01*
X7316000Y-7467600D02*
X7416000Y-7467600D01*
X7366000Y-7671600D02*
X7366000Y-7771600D01*
X7316000Y-7721600D02*
X7416000Y-7721600D01*
X7620000Y-7417600D02*
X7620000Y-7517600D01*
X7570000Y-7467600D02*
X7670000Y-7467600D01*
X7620000Y-7671600D02*
X7620000Y-7771600D01*
X7570000Y-7721600D02*
X7670000Y-7721600D01*
X7658100Y-10529600D02*
X7658100Y-10629600D01*
X7608100Y-10579600D02*
X7708100Y-10579600D01*
X7658100Y-10783600D02*
X7658100Y-10883600D01*
X7608100Y-10833600D02*
X7708100Y-10833600D01*
X7658100Y-11418100D02*
X7658100Y-11518100D01*
X7608100Y-11468100D02*
X7708100Y-11468100D01*
X7658100Y-11672100D02*
X7658100Y-11772100D01*
X7608100Y-11722100D02*
X7708100Y-11722100D01*
X11240000Y-7633500D02*
X11240000Y-7733500D01*
X11190000Y-7683500D02*
X11290000Y-7683500D01*
X11494000Y-7633500D02*
X11494000Y-7733500D01*
X11444000Y-7683500D02*
X11544000Y-7683500D01*
X12192000Y-7633000D02*
X12192000Y-7733000D01*
X12142000Y-7683000D02*
X12242000Y-7683000D01*
X12192000Y-7887000D02*
X12192000Y-7987000D01*
X12142000Y-7937000D02*
X12242000Y-7937000D01*
X12192000Y-8141000D02*
X12192000Y-8241000D01*
X12142000Y-8191000D02*
X12242000Y-8191000D01*
X12192000Y-8395000D02*
X12192000Y-8495000D01*
X12142000Y-8445000D02*
X12242000Y-8445000D01*
X12192000Y-8649000D02*
X12192000Y-8749000D01*
X12142000Y-8699000D02*
X12242000Y-8699000D01*
X12192000Y-8903000D02*
X12192000Y-9003000D01*
X12142000Y-8953000D02*
X12242000Y-8953000D01*
X12192000Y-9157000D02*
X12192000Y-9257000D01*
X12142000Y-9207000D02*
X12242000Y-9207000D01*
X12192000Y-9411000D02*
X12192000Y-9511000D01*
X12142000Y-9461000D02*
X12242000Y-9461000D01*
X12192000Y-9665000D02*
X12192000Y-9765000D01*
X12142000Y-9715000D02*
X12242000Y-9715000D01*
X12192000Y-9919000D02*
X12192000Y-10019000D01*
X12142000Y-9969000D02*
X12242000Y-9969000D01*
X12192000Y-10173000D02*
X12192000Y-10273000D01*
X12142000Y-10223000D02*
X12242000Y-10223000D01*
X12192000Y-10427000D02*
X12192000Y-10527000D01*
X12142000Y-10477000D02*
X12242000Y-10477000D01*
X12192000Y-10681000D02*
X12192000Y-10781000D01*
X12142000Y-10731000D02*
X12242000Y-10731000D01*
X12192000Y-10935000D02*
X12192000Y-11035000D01*
X12142000Y-10985000D02*
X12242000Y-10985000D01*
X12192000Y-11189000D02*
X12192000Y-11289000D01*
X12142000Y-11239000D02*
X12242000Y-11239000D01*
X12192000Y-11443000D02*
X12192000Y-11543000D01*
X12142000Y-11493000D02*
X12242000Y-11493000D01*
X12192000Y-11697000D02*
X12192000Y-11797000D01*
X12142000Y-11747000D02*
X12242000Y-11747000D01*
X12192000Y-11951000D02*
X12192000Y-12051000D01*
X12142000Y-12001000D02*
X12242000Y-12001000D01*
X12192000Y-12205000D02*
X12192000Y-12305000D01*
X12142000Y-12255000D02*
X12242000Y-12255000D01*
X12192000Y-12459000D02*
X12192000Y-12559000D01*
X12142000Y-12509000D02*
X12242000Y-12509000D01*
X12446000Y-7633000D02*
X12446000Y-7733000D01*
X12396000Y-7683000D02*
X12496000Y-7683000D01*
X12446000Y-7887000D02*
X12446000Y-7987000D01*
X12396000Y-7937000D02*
X12496000Y-7937000D01*
X12446000Y-8141000D02*
X12446000Y-8241000D01*
X12396000Y-8191000D02*
X12496000Y-8191000D01*
X12446000Y-8395000D02*
X12446000Y-8495000D01*
X12396000Y-8445000D02*
X12496000Y-8445000D01*
X12446000Y-8649000D02*
X12446000Y-8749000D01*
X12396000Y-8699000D02*
X12496000Y-8699000D01*
X12446000Y-8903000D02*
X12446000Y-9003000D01*
X12396000Y-8953000D02*
X12496000Y-8953000D01*
X12446000Y-9157000D02*
X12446000Y-9257000D01*
X12396000Y-9207000D02*
X12496000Y-9207000D01*
X12446000Y-9411000D02*
X12446000Y-9511000D01*
X12396000Y-9461000D02*
X12496000Y-9461000D01*
X12446000Y-9665000D02*
X12446000Y-9765000D01*
X12396000Y-9715000D02*
X12496000Y-9715000D01*
X12446000Y-9919000D02*
X12446000Y-10019000D01*
X12396000Y-9969000D02*
X12496000Y-9969000D01*
X12446000Y-10173000D02*
X12446000Y-10273000D01*
X12396000Y-10223000D02*
X12496000Y-10223000D01*
X12446000Y-10427000D02*
X12446000Y-10527000D01*
X12396000Y-10477000D02*
X12496000Y-10477000D01*
X12446000Y-10681000D02*
X12446000Y-10781000D01*
X12396000Y-10731000D02*
X12496000Y-10731000D01*
X12446000Y-10935000D02*
X12446000Y-11035000D01*
X12396000Y-10985000D02*
X12496000Y-10985000D01*
X12446000Y-11189000D02*
X12446000Y-11289000D01*
X12396000Y-11239000D02*
X12496000Y-11239000D01*
X12446000Y-11443000D02*
X12446000Y-11543000D01*
X12396000Y-11493000D02*
X12496000Y-11493000D01*
X12446000Y-11697000D02*
X12446000Y-11797000D01*
X12396000Y-11747000D02*
X12496000Y-11747000D01*
X12446000Y-11951000D02*
X12446000Y-12051000D01*
X12396000Y-12001000D02*
X12496000Y-12001000D01*
X12446000Y-12205000D02*
X12446000Y-12305000D01*
X12396000Y-12255000D02*
X12496000Y-12255000D01*
X12446000Y-12459000D02*
X12446000Y-12559000D01*
X12396000Y-12509000D02*
X12496000Y-12509000D01*
X13919200Y-13488200D02*
X13919200Y-13588200D01*
X13869200Y-13538200D02*
X13969200Y-13538200D01*
X14173200Y-13488200D02*
X14173200Y-13588200D01*
X14123200Y-13538200D02*
X14223200Y-13538200D01*
D11*
X5599279Y-15853966D02*
X5599279Y-15653966D01*
X5646898Y-15653966D01*
X5675469Y-15663490D01*
X5694517Y-15682538D01*
X5704041Y-15701585D01*
X5713565Y-15739680D01*
X5713565Y-15768252D01*
X5704041Y-15806347D01*
X5694517Y-15825395D01*
X5675469Y-15844442D01*
X5646898Y-15853966D01*
X5599279Y-15853966D01*
X5799279Y-15853966D02*
X5799279Y-15720633D01*
X5799279Y-15758728D02*
X5808803Y-15739680D01*
X5818327Y-15730157D01*
X5837374Y-15720633D01*
X5856422Y-15720633D01*
X5923088Y-15853966D02*
X5923088Y-15720633D01*
X5923088Y-15653966D02*
X5913565Y-15663490D01*
X5923088Y-15673014D01*
X5932612Y-15663490D01*
X5923088Y-15653966D01*
X5923088Y-15673014D01*
X6046898Y-15853966D02*
X6027850Y-15844442D01*
X6018327Y-15825395D01*
X6018327Y-15653966D01*
X6151660Y-15853966D02*
X6132612Y-15844442D01*
X6123088Y-15825395D01*
X6123088Y-15653966D01*
X6380231Y-15853966D02*
X6380231Y-15653966D01*
X6446898Y-15796823D01*
X6513565Y-15653966D01*
X6513565Y-15853966D01*
X6694517Y-15853966D02*
X6694517Y-15749204D01*
X6684993Y-15730157D01*
X6665946Y-15720633D01*
X6627850Y-15720633D01*
X6608803Y-15730157D01*
X6694517Y-15844442D02*
X6675469Y-15853966D01*
X6627850Y-15853966D01*
X6608803Y-15844442D01*
X6599279Y-15825395D01*
X6599279Y-15806347D01*
X6608803Y-15787299D01*
X6627850Y-15777776D01*
X6675469Y-15777776D01*
X6694517Y-15768252D01*
X6789755Y-15720633D02*
X6789755Y-15920633D01*
X6789755Y-15730157D02*
X6808803Y-15720633D01*
X6846898Y-15720633D01*
X6865946Y-15730157D01*
X6875469Y-15739680D01*
X6884993Y-15758728D01*
X6884993Y-15815871D01*
X6875469Y-15834918D01*
X6865946Y-15844442D01*
X6846898Y-15853966D01*
X6808803Y-15853966D01*
X6789755Y-15844442D01*
X6970708Y-15834918D02*
X6980231Y-15844442D01*
X6970708Y-15853966D01*
X6961184Y-15844442D01*
X6970708Y-15834918D01*
X6970708Y-15853966D01*
X6970708Y-15730157D02*
X6980231Y-15739680D01*
X6970708Y-15749204D01*
X6961184Y-15739680D01*
X6970708Y-15730157D01*
X6970708Y-15749204D01*
D12*
X5301660Y-16163490D02*
X5341660Y-16203490D01*
X5341660Y-16163490D02*
X5301660Y-16203490D01*
D11*
X5637374Y-16073966D02*
X5656422Y-16073966D01*
X5675469Y-16083490D01*
X5684993Y-16093014D01*
X5694517Y-16112061D01*
X5704041Y-16150157D01*
X5704041Y-16197776D01*
X5694517Y-16235871D01*
X5684993Y-16254918D01*
X5675469Y-16264442D01*
X5656422Y-16273966D01*
X5637374Y-16273966D01*
X5618327Y-16264442D01*
X5608803Y-16254918D01*
X5599279Y-16235871D01*
X5589755Y-16197776D01*
X5589755Y-16150157D01*
X5599279Y-16112061D01*
X5608803Y-16093014D01*
X5618327Y-16083490D01*
X5637374Y-16073966D01*
X5789755Y-16254918D02*
X5799279Y-16264442D01*
X5789755Y-16273966D01*
X5780231Y-16264442D01*
X5789755Y-16254918D01*
X5789755Y-16273966D01*
X5970708Y-16140633D02*
X5970708Y-16273966D01*
X5923088Y-16064442D02*
X5875469Y-16207299D01*
X5999279Y-16207299D01*
X6113565Y-16073966D02*
X6132612Y-16073966D01*
X6151660Y-16083490D01*
X6161184Y-16093014D01*
X6170708Y-16112061D01*
X6180231Y-16150157D01*
X6180231Y-16197776D01*
X6170708Y-16235871D01*
X6161184Y-16254918D01*
X6151660Y-16264442D01*
X6132612Y-16273966D01*
X6113565Y-16273966D01*
X6094517Y-16264442D01*
X6084993Y-16254918D01*
X6075469Y-16235871D01*
X6065946Y-16197776D01*
X6065946Y-16150157D01*
X6075469Y-16112061D01*
X6084993Y-16093014D01*
X6094517Y-16083490D01*
X6113565Y-16073966D01*
X6304041Y-16073966D02*
X6323088Y-16073966D01*
X6342136Y-16083490D01*
X6351660Y-16093014D01*
X6361184Y-16112061D01*
X6370708Y-16150157D01*
X6370708Y-16197776D01*
X6361184Y-16235871D01*
X6351660Y-16254918D01*
X6342136Y-16264442D01*
X6323088Y-16273966D01*
X6304041Y-16273966D01*
X6284993Y-16264442D01*
X6275469Y-16254918D01*
X6265946Y-16235871D01*
X6256422Y-16197776D01*
X6256422Y-16150157D01*
X6265946Y-16112061D01*
X6275469Y-16093014D01*
X6284993Y-16083490D01*
X6304041Y-16073966D01*
X6456422Y-16273966D02*
X6456422Y-16140633D01*
X6456422Y-16159680D02*
X6465946Y-16150157D01*
X6484993Y-16140633D01*
X6513565Y-16140633D01*
X6532612Y-16150157D01*
X6542136Y-16169204D01*
X6542136Y-16273966D01*
X6542136Y-16169204D02*
X6551660Y-16150157D01*
X6570708Y-16140633D01*
X6599279Y-16140633D01*
X6618327Y-16150157D01*
X6627850Y-16169204D01*
X6627850Y-16273966D01*
X6723088Y-16273966D02*
X6723088Y-16140633D01*
X6723088Y-16159680D02*
X6732612Y-16150157D01*
X6751660Y-16140633D01*
X6780231Y-16140633D01*
X6799279Y-16150157D01*
X6808803Y-16169204D01*
X6808803Y-16273966D01*
X6808803Y-16169204D02*
X6818327Y-16150157D01*
X6837374Y-16140633D01*
X6865946Y-16140633D01*
X6884993Y-16150157D01*
X6894517Y-16169204D01*
X6894517Y-16273966D01*
X7284993Y-16064442D02*
X7113565Y-16321585D01*
X7542136Y-16073966D02*
X7561184Y-16073966D01*
X7580231Y-16083490D01*
X7589755Y-16093014D01*
X7599279Y-16112061D01*
X7608803Y-16150157D01*
X7608803Y-16197776D01*
X7599279Y-16235871D01*
X7589755Y-16254918D01*
X7580231Y-16264442D01*
X7561184Y-16273966D01*
X7542136Y-16273966D01*
X7523088Y-16264442D01*
X7513565Y-16254918D01*
X7504041Y-16235871D01*
X7494517Y-16197776D01*
X7494517Y-16150157D01*
X7504041Y-16112061D01*
X7513565Y-16093014D01*
X7523088Y-16083490D01*
X7542136Y-16073966D01*
X7694517Y-16254918D02*
X7704041Y-16264442D01*
X7694517Y-16273966D01*
X7684993Y-16264442D01*
X7694517Y-16254918D01*
X7694517Y-16273966D01*
X7827850Y-16073966D02*
X7846898Y-16073966D01*
X7865946Y-16083490D01*
X7875469Y-16093014D01*
X7884993Y-16112061D01*
X7894517Y-16150157D01*
X7894517Y-16197776D01*
X7884993Y-16235871D01*
X7875469Y-16254918D01*
X7865946Y-16264442D01*
X7846898Y-16273966D01*
X7827850Y-16273966D01*
X7808803Y-16264442D01*
X7799279Y-16254918D01*
X7789755Y-16235871D01*
X7780231Y-16197776D01*
X7780231Y-16150157D01*
X7789755Y-16112061D01*
X7799279Y-16093014D01*
X7808803Y-16083490D01*
X7827850Y-16073966D01*
X8084993Y-16273966D02*
X7970708Y-16273966D01*
X8027850Y-16273966D02*
X8027850Y-16073966D01*
X8008803Y-16102538D01*
X7989755Y-16121585D01*
X7970708Y-16131109D01*
X8265946Y-16073966D02*
X8170708Y-16073966D01*
X8161184Y-16169204D01*
X8170708Y-16159680D01*
X8189755Y-16150157D01*
X8237374Y-16150157D01*
X8256422Y-16159680D01*
X8265946Y-16169204D01*
X8275469Y-16188252D01*
X8275469Y-16235871D01*
X8265946Y-16254918D01*
X8256422Y-16264442D01*
X8237374Y-16273966D01*
X8189755Y-16273966D01*
X8170708Y-16264442D01*
X8161184Y-16254918D01*
X8342136Y-16073966D02*
X8475470Y-16073966D01*
X8389755Y-16273966D01*
X8542136Y-16073966D02*
X8542136Y-16112061D01*
X8618327Y-16073966D02*
X8618327Y-16112061D01*
X8913565Y-16350157D02*
X8904041Y-16340633D01*
X8884993Y-16312061D01*
X8875470Y-16293014D01*
X8865946Y-16264442D01*
X8856422Y-16216823D01*
X8856422Y-16178728D01*
X8865946Y-16131109D01*
X8875470Y-16102538D01*
X8884993Y-16083490D01*
X8904041Y-16054918D01*
X8913565Y-16045395D01*
X9018327Y-16159680D02*
X8999279Y-16150157D01*
X8989755Y-16140633D01*
X8980231Y-16121585D01*
X8980231Y-16112061D01*
X8989755Y-16093014D01*
X8999279Y-16083490D01*
X9018327Y-16073966D01*
X9056422Y-16073966D01*
X9075470Y-16083490D01*
X9084993Y-16093014D01*
X9094517Y-16112061D01*
X9094517Y-16121585D01*
X9084993Y-16140633D01*
X9075470Y-16150157D01*
X9056422Y-16159680D01*
X9018327Y-16159680D01*
X8999279Y-16169204D01*
X8989755Y-16178728D01*
X8980231Y-16197776D01*
X8980231Y-16235871D01*
X8989755Y-16254918D01*
X8999279Y-16264442D01*
X9018327Y-16273966D01*
X9056422Y-16273966D01*
X9075470Y-16264442D01*
X9084993Y-16254918D01*
X9094517Y-16235871D01*
X9094517Y-16197776D01*
X9084993Y-16178728D01*
X9075470Y-16169204D01*
X9056422Y-16159680D01*
X9161184Y-16073966D02*
X9294517Y-16073966D01*
X9208803Y-16273966D01*
X9523089Y-16273966D02*
X9523089Y-16073966D01*
X9608803Y-16273966D02*
X9608803Y-16169204D01*
X9599279Y-16150157D01*
X9580231Y-16140633D01*
X9551660Y-16140633D01*
X9532612Y-16150157D01*
X9523089Y-16159680D01*
X9732612Y-16273966D02*
X9713565Y-16264442D01*
X9704041Y-16254918D01*
X9694517Y-16235871D01*
X9694517Y-16178728D01*
X9704041Y-16159680D01*
X9713565Y-16150157D01*
X9732612Y-16140633D01*
X9761184Y-16140633D01*
X9780231Y-16150157D01*
X9789755Y-16159680D01*
X9799279Y-16178728D01*
X9799279Y-16235871D01*
X9789755Y-16254918D01*
X9780231Y-16264442D01*
X9761184Y-16273966D01*
X9732612Y-16273966D01*
X9913565Y-16273966D02*
X9894517Y-16264442D01*
X9884993Y-16245395D01*
X9884993Y-16073966D01*
X10065946Y-16264442D02*
X10046898Y-16273966D01*
X10008803Y-16273966D01*
X9989755Y-16264442D01*
X9980231Y-16245395D01*
X9980231Y-16169204D01*
X9989755Y-16150157D01*
X10008803Y-16140633D01*
X10046898Y-16140633D01*
X10065946Y-16150157D01*
X10075470Y-16169204D01*
X10075470Y-16188252D01*
X9980231Y-16207299D01*
X10151660Y-16264442D02*
X10170708Y-16273966D01*
X10208803Y-16273966D01*
X10227850Y-16264442D01*
X10237374Y-16245395D01*
X10237374Y-16235871D01*
X10227850Y-16216823D01*
X10208803Y-16207299D01*
X10180231Y-16207299D01*
X10161184Y-16197776D01*
X10151660Y-16178728D01*
X10151660Y-16169204D01*
X10161184Y-16150157D01*
X10180231Y-16140633D01*
X10208803Y-16140633D01*
X10227850Y-16150157D01*
X10304041Y-16350157D02*
X10313565Y-16340633D01*
X10332612Y-16312061D01*
X10342136Y-16293014D01*
X10351660Y-16264442D01*
X10361184Y-16216823D01*
X10361184Y-16178728D01*
X10351660Y-16131109D01*
X10342136Y-16102538D01*
X10332612Y-16083490D01*
X10313565Y-16054918D01*
X10304041Y-16045395D01*
D13*
X5341660Y-16447490D02*
G75*
G03*
X5341660Y-16447490I-40000J0D01*
G01*
D11*
X5637374Y-16337966D02*
X5656422Y-16337966D01*
X5675469Y-16347490D01*
X5684993Y-16357014D01*
X5694517Y-16376061D01*
X5704041Y-16414157D01*
X5704041Y-16461776D01*
X5694517Y-16499871D01*
X5684993Y-16518918D01*
X5675469Y-16528442D01*
X5656422Y-16537966D01*
X5637374Y-16537966D01*
X5618327Y-16528442D01*
X5608803Y-16518918D01*
X5599279Y-16499871D01*
X5589755Y-16461776D01*
X5589755Y-16414157D01*
X5599279Y-16376061D01*
X5608803Y-16357014D01*
X5618327Y-16347490D01*
X5637374Y-16337966D01*
X5789755Y-16518918D02*
X5799279Y-16528442D01*
X5789755Y-16537966D01*
X5780231Y-16528442D01*
X5789755Y-16518918D01*
X5789755Y-16537966D01*
X5913565Y-16423680D02*
X5894517Y-16414157D01*
X5884993Y-16404633D01*
X5875469Y-16385585D01*
X5875469Y-16376061D01*
X5884993Y-16357014D01*
X5894517Y-16347490D01*
X5913565Y-16337966D01*
X5951660Y-16337966D01*
X5970708Y-16347490D01*
X5980231Y-16357014D01*
X5989755Y-16376061D01*
X5989755Y-16385585D01*
X5980231Y-16404633D01*
X5970708Y-16414157D01*
X5951660Y-16423680D01*
X5913565Y-16423680D01*
X5894517Y-16433204D01*
X5884993Y-16442728D01*
X5875469Y-16461776D01*
X5875469Y-16499871D01*
X5884993Y-16518918D01*
X5894517Y-16528442D01*
X5913565Y-16537966D01*
X5951660Y-16537966D01*
X5970708Y-16528442D01*
X5980231Y-16518918D01*
X5989755Y-16499871D01*
X5989755Y-16461776D01*
X5980231Y-16442728D01*
X5970708Y-16433204D01*
X5951660Y-16423680D01*
X6113565Y-16337966D02*
X6132612Y-16337966D01*
X6151660Y-16347490D01*
X6161184Y-16357014D01*
X6170708Y-16376061D01*
X6180231Y-16414157D01*
X6180231Y-16461776D01*
X6170708Y-16499871D01*
X6161184Y-16518918D01*
X6151660Y-16528442D01*
X6132612Y-16537966D01*
X6113565Y-16537966D01*
X6094517Y-16528442D01*
X6084993Y-16518918D01*
X6075469Y-16499871D01*
X6065946Y-16461776D01*
X6065946Y-16414157D01*
X6075469Y-16376061D01*
X6084993Y-16357014D01*
X6094517Y-16347490D01*
X6113565Y-16337966D01*
X6304041Y-16337966D02*
X6323088Y-16337966D01*
X6342136Y-16347490D01*
X6351660Y-16357014D01*
X6361184Y-16376061D01*
X6370708Y-16414157D01*
X6370708Y-16461776D01*
X6361184Y-16499871D01*
X6351660Y-16518918D01*
X6342136Y-16528442D01*
X6323088Y-16537966D01*
X6304041Y-16537966D01*
X6284993Y-16528442D01*
X6275469Y-16518918D01*
X6265946Y-16499871D01*
X6256422Y-16461776D01*
X6256422Y-16414157D01*
X6265946Y-16376061D01*
X6275469Y-16357014D01*
X6284993Y-16347490D01*
X6304041Y-16337966D01*
X6456422Y-16537966D02*
X6456422Y-16404633D01*
X6456422Y-16423680D02*
X6465946Y-16414157D01*
X6484993Y-16404633D01*
X6513565Y-16404633D01*
X6532612Y-16414157D01*
X6542136Y-16433204D01*
X6542136Y-16537966D01*
X6542136Y-16433204D02*
X6551660Y-16414157D01*
X6570708Y-16404633D01*
X6599279Y-16404633D01*
X6618327Y-16414157D01*
X6627850Y-16433204D01*
X6627850Y-16537966D01*
X6723088Y-16537966D02*
X6723088Y-16404633D01*
X6723088Y-16423680D02*
X6732612Y-16414157D01*
X6751660Y-16404633D01*
X6780231Y-16404633D01*
X6799279Y-16414157D01*
X6808803Y-16433204D01*
X6808803Y-16537966D01*
X6808803Y-16433204D02*
X6818327Y-16414157D01*
X6837374Y-16404633D01*
X6865946Y-16404633D01*
X6884993Y-16414157D01*
X6894517Y-16433204D01*
X6894517Y-16537966D01*
X7284993Y-16328442D02*
X7113565Y-16585585D01*
X7542136Y-16337966D02*
X7561184Y-16337966D01*
X7580231Y-16347490D01*
X7589755Y-16357014D01*
X7599279Y-16376061D01*
X7608803Y-16414157D01*
X7608803Y-16461776D01*
X7599279Y-16499871D01*
X7589755Y-16518918D01*
X7580231Y-16528442D01*
X7561184Y-16537966D01*
X7542136Y-16537966D01*
X7523088Y-16528442D01*
X7513565Y-16518918D01*
X7504041Y-16499871D01*
X7494517Y-16461776D01*
X7494517Y-16414157D01*
X7504041Y-16376061D01*
X7513565Y-16357014D01*
X7523088Y-16347490D01*
X7542136Y-16337966D01*
X7694517Y-16518918D02*
X7704041Y-16528442D01*
X7694517Y-16537966D01*
X7684993Y-16528442D01*
X7694517Y-16518918D01*
X7694517Y-16537966D01*
X7827850Y-16337966D02*
X7846898Y-16337966D01*
X7865946Y-16347490D01*
X7875469Y-16357014D01*
X7884993Y-16376061D01*
X7894517Y-16414157D01*
X7894517Y-16461776D01*
X7884993Y-16499871D01*
X7875469Y-16518918D01*
X7865946Y-16528442D01*
X7846898Y-16537966D01*
X7827850Y-16537966D01*
X7808803Y-16528442D01*
X7799279Y-16518918D01*
X7789755Y-16499871D01*
X7780231Y-16461776D01*
X7780231Y-16414157D01*
X7789755Y-16376061D01*
X7799279Y-16357014D01*
X7808803Y-16347490D01*
X7827850Y-16337966D01*
X7961184Y-16337966D02*
X8084993Y-16337966D01*
X8018327Y-16414157D01*
X8046898Y-16414157D01*
X8065946Y-16423680D01*
X8075469Y-16433204D01*
X8084993Y-16452252D01*
X8084993Y-16499871D01*
X8075469Y-16518918D01*
X8065946Y-16528442D01*
X8046898Y-16537966D01*
X7989755Y-16537966D01*
X7970708Y-16528442D01*
X7961184Y-16518918D01*
X8275469Y-16537966D02*
X8161184Y-16537966D01*
X8218327Y-16537966D02*
X8218327Y-16337966D01*
X8199279Y-16366538D01*
X8180231Y-16385585D01*
X8161184Y-16395109D01*
X8456422Y-16337966D02*
X8361184Y-16337966D01*
X8351660Y-16433204D01*
X8361184Y-16423680D01*
X8380231Y-16414157D01*
X8427850Y-16414157D01*
X8446898Y-16423680D01*
X8456422Y-16433204D01*
X8465946Y-16452252D01*
X8465946Y-16499871D01*
X8456422Y-16518918D01*
X8446898Y-16528442D01*
X8427850Y-16537966D01*
X8380231Y-16537966D01*
X8361184Y-16528442D01*
X8351660Y-16518918D01*
X8542136Y-16337966D02*
X8542136Y-16376061D01*
X8618327Y-16337966D02*
X8618327Y-16376061D01*
X8913565Y-16614157D02*
X8904041Y-16604633D01*
X8884993Y-16576061D01*
X8875470Y-16557014D01*
X8865946Y-16528442D01*
X8856422Y-16480823D01*
X8856422Y-16442728D01*
X8865946Y-16395109D01*
X8875470Y-16366538D01*
X8884993Y-16347490D01*
X8904041Y-16318918D01*
X8913565Y-16309395D01*
X8980231Y-16357014D02*
X8989755Y-16347490D01*
X9008803Y-16337966D01*
X9056422Y-16337966D01*
X9075470Y-16347490D01*
X9084993Y-16357014D01*
X9094517Y-16376061D01*
X9094517Y-16395109D01*
X9084993Y-16423680D01*
X8970708Y-16537966D01*
X9094517Y-16537966D01*
X9208803Y-16423680D02*
X9189755Y-16414157D01*
X9180231Y-16404633D01*
X9170708Y-16385585D01*
X9170708Y-16376061D01*
X9180231Y-16357014D01*
X9189755Y-16347490D01*
X9208803Y-16337966D01*
X9246898Y-16337966D01*
X9265946Y-16347490D01*
X9275470Y-16357014D01*
X9284993Y-16376061D01*
X9284993Y-16385585D01*
X9275470Y-16404633D01*
X9265946Y-16414157D01*
X9246898Y-16423680D01*
X9208803Y-16423680D01*
X9189755Y-16433204D01*
X9180231Y-16442728D01*
X9170708Y-16461776D01*
X9170708Y-16499871D01*
X9180231Y-16518918D01*
X9189755Y-16528442D01*
X9208803Y-16537966D01*
X9246898Y-16537966D01*
X9265946Y-16528442D01*
X9275470Y-16518918D01*
X9284993Y-16499871D01*
X9284993Y-16461776D01*
X9275470Y-16442728D01*
X9265946Y-16433204D01*
X9246898Y-16423680D01*
X9456422Y-16337966D02*
X9418327Y-16337966D01*
X9399279Y-16347490D01*
X9389755Y-16357014D01*
X9370708Y-16385585D01*
X9361184Y-16423680D01*
X9361184Y-16499871D01*
X9370708Y-16518918D01*
X9380231Y-16528442D01*
X9399279Y-16537966D01*
X9437374Y-16537966D01*
X9456422Y-16528442D01*
X9465946Y-16518918D01*
X9475470Y-16499871D01*
X9475470Y-16452252D01*
X9465946Y-16433204D01*
X9456422Y-16423680D01*
X9437374Y-16414157D01*
X9399279Y-16414157D01*
X9380231Y-16423680D01*
X9370708Y-16433204D01*
X9361184Y-16452252D01*
X9713565Y-16537966D02*
X9713565Y-16337966D01*
X9799279Y-16537966D02*
X9799279Y-16433204D01*
X9789755Y-16414157D01*
X9770708Y-16404633D01*
X9742136Y-16404633D01*
X9723089Y-16414157D01*
X9713565Y-16423680D01*
X9923089Y-16537966D02*
X9904041Y-16528442D01*
X9894517Y-16518918D01*
X9884993Y-16499871D01*
X9884993Y-16442728D01*
X9894517Y-16423680D01*
X9904041Y-16414157D01*
X9923089Y-16404633D01*
X9951660Y-16404633D01*
X9970708Y-16414157D01*
X9980231Y-16423680D01*
X9989755Y-16442728D01*
X9989755Y-16499871D01*
X9980231Y-16518918D01*
X9970708Y-16528442D01*
X9951660Y-16537966D01*
X9923089Y-16537966D01*
X10104041Y-16537966D02*
X10084993Y-16528442D01*
X10075470Y-16509395D01*
X10075470Y-16337966D01*
X10256422Y-16528442D02*
X10237374Y-16537966D01*
X10199279Y-16537966D01*
X10180231Y-16528442D01*
X10170708Y-16509395D01*
X10170708Y-16433204D01*
X10180231Y-16414157D01*
X10199279Y-16404633D01*
X10237374Y-16404633D01*
X10256422Y-16414157D01*
X10265946Y-16433204D01*
X10265946Y-16452252D01*
X10170708Y-16471299D01*
X10342136Y-16528442D02*
X10361184Y-16537966D01*
X10399279Y-16537966D01*
X10418327Y-16528442D01*
X10427850Y-16509395D01*
X10427850Y-16499871D01*
X10418327Y-16480823D01*
X10399279Y-16471299D01*
X10370708Y-16471299D01*
X10351660Y-16461776D01*
X10342136Y-16442728D01*
X10342136Y-16433204D01*
X10351660Y-16414157D01*
X10370708Y-16404633D01*
X10399279Y-16404633D01*
X10418327Y-16414157D01*
X10494517Y-16614157D02*
X10504041Y-16604633D01*
X10523089Y-16576061D01*
X10532612Y-16557014D01*
X10542136Y-16528442D01*
X10551660Y-16480823D01*
X10551660Y-16442728D01*
X10542136Y-16395109D01*
X10532612Y-16366538D01*
X10523089Y-16347490D01*
X10504041Y-16318918D01*
X10494517Y-16309395D01*
D14*
X5291660Y-16661490D02*
X5291660Y-16761490D01*
X5241660Y-16711490D02*
X5341660Y-16711490D01*
D11*
X5704041Y-16801966D02*
X5589755Y-16801966D01*
X5646898Y-16801966D02*
X5646898Y-16601966D01*
X5627850Y-16630538D01*
X5608803Y-16649585D01*
X5589755Y-16659109D01*
X5789755Y-16782919D02*
X5799279Y-16792442D01*
X5789755Y-16801966D01*
X5780231Y-16792442D01*
X5789755Y-16782919D01*
X5789755Y-16801966D01*
X5923088Y-16601966D02*
X5942136Y-16601966D01*
X5961184Y-16611490D01*
X5970708Y-16621014D01*
X5980231Y-16640061D01*
X5989755Y-16678157D01*
X5989755Y-16725776D01*
X5980231Y-16763871D01*
X5970708Y-16782919D01*
X5961184Y-16792442D01*
X5942136Y-16801966D01*
X5923088Y-16801966D01*
X5904041Y-16792442D01*
X5894517Y-16782919D01*
X5884993Y-16763871D01*
X5875469Y-16725776D01*
X5875469Y-16678157D01*
X5884993Y-16640061D01*
X5894517Y-16621014D01*
X5904041Y-16611490D01*
X5923088Y-16601966D01*
X6113565Y-16601966D02*
X6132612Y-16601966D01*
X6151660Y-16611490D01*
X6161184Y-16621014D01*
X6170708Y-16640061D01*
X6180231Y-16678157D01*
X6180231Y-16725776D01*
X6170708Y-16763871D01*
X6161184Y-16782919D01*
X6151660Y-16792442D01*
X6132612Y-16801966D01*
X6113565Y-16801966D01*
X6094517Y-16792442D01*
X6084993Y-16782919D01*
X6075469Y-16763871D01*
X6065946Y-16725776D01*
X6065946Y-16678157D01*
X6075469Y-16640061D01*
X6084993Y-16621014D01*
X6094517Y-16611490D01*
X6113565Y-16601966D01*
X6304041Y-16601966D02*
X6323088Y-16601966D01*
X6342136Y-16611490D01*
X6351660Y-16621014D01*
X6361184Y-16640061D01*
X6370708Y-16678157D01*
X6370708Y-16725776D01*
X6361184Y-16763871D01*
X6351660Y-16782919D01*
X6342136Y-16792442D01*
X6323088Y-16801966D01*
X6304041Y-16801966D01*
X6284993Y-16792442D01*
X6275469Y-16782919D01*
X6265946Y-16763871D01*
X6256422Y-16725776D01*
X6256422Y-16678157D01*
X6265946Y-16640061D01*
X6275469Y-16621014D01*
X6284993Y-16611490D01*
X6304041Y-16601966D01*
X6456422Y-16801966D02*
X6456422Y-16668633D01*
X6456422Y-16687680D02*
X6465946Y-16678157D01*
X6484993Y-16668633D01*
X6513565Y-16668633D01*
X6532612Y-16678157D01*
X6542136Y-16697204D01*
X6542136Y-16801966D01*
X6542136Y-16697204D02*
X6551660Y-16678157D01*
X6570708Y-16668633D01*
X6599279Y-16668633D01*
X6618327Y-16678157D01*
X6627850Y-16697204D01*
X6627850Y-16801966D01*
X6723088Y-16801966D02*
X6723088Y-16668633D01*
X6723088Y-16687680D02*
X6732612Y-16678157D01*
X6751660Y-16668633D01*
X6780231Y-16668633D01*
X6799279Y-16678157D01*
X6808803Y-16697204D01*
X6808803Y-16801966D01*
X6808803Y-16697204D02*
X6818327Y-16678157D01*
X6837374Y-16668633D01*
X6865946Y-16668633D01*
X6884993Y-16678157D01*
X6894517Y-16697204D01*
X6894517Y-16801966D01*
X7284993Y-16592442D02*
X7113565Y-16849585D01*
X7542136Y-16601966D02*
X7561184Y-16601966D01*
X7580231Y-16611490D01*
X7589755Y-16621014D01*
X7599279Y-16640061D01*
X7608803Y-16678157D01*
X7608803Y-16725776D01*
X7599279Y-16763871D01*
X7589755Y-16782919D01*
X7580231Y-16792442D01*
X7561184Y-16801966D01*
X7542136Y-16801966D01*
X7523088Y-16792442D01*
X7513565Y-16782919D01*
X7504041Y-16763871D01*
X7494517Y-16725776D01*
X7494517Y-16678157D01*
X7504041Y-16640061D01*
X7513565Y-16621014D01*
X7523088Y-16611490D01*
X7542136Y-16601966D01*
X7694517Y-16782919D02*
X7704041Y-16792442D01*
X7694517Y-16801966D01*
X7684993Y-16792442D01*
X7694517Y-16782919D01*
X7694517Y-16801966D01*
X7827850Y-16601966D02*
X7846898Y-16601966D01*
X7865946Y-16611490D01*
X7875469Y-16621014D01*
X7884993Y-16640061D01*
X7894517Y-16678157D01*
X7894517Y-16725776D01*
X7884993Y-16763871D01*
X7875469Y-16782919D01*
X7865946Y-16792442D01*
X7846898Y-16801966D01*
X7827850Y-16801966D01*
X7808803Y-16792442D01*
X7799279Y-16782919D01*
X7789755Y-16763871D01*
X7780231Y-16725776D01*
X7780231Y-16678157D01*
X7789755Y-16640061D01*
X7799279Y-16621014D01*
X7808803Y-16611490D01*
X7827850Y-16601966D01*
X7961184Y-16601966D02*
X8084993Y-16601966D01*
X8018327Y-16678157D01*
X8046898Y-16678157D01*
X8065946Y-16687680D01*
X8075469Y-16697204D01*
X8084993Y-16716252D01*
X8084993Y-16763871D01*
X8075469Y-16782919D01*
X8065946Y-16792442D01*
X8046898Y-16801966D01*
X7989755Y-16801966D01*
X7970708Y-16792442D01*
X7961184Y-16782919D01*
X8180231Y-16801966D02*
X8218327Y-16801966D01*
X8237374Y-16792442D01*
X8246898Y-16782919D01*
X8265946Y-16754347D01*
X8275469Y-16716252D01*
X8275469Y-16640061D01*
X8265946Y-16621014D01*
X8256422Y-16611490D01*
X8237374Y-16601966D01*
X8199279Y-16601966D01*
X8180231Y-16611490D01*
X8170708Y-16621014D01*
X8161184Y-16640061D01*
X8161184Y-16687680D01*
X8170708Y-16706728D01*
X8180231Y-16716252D01*
X8199279Y-16725776D01*
X8237374Y-16725776D01*
X8256422Y-16716252D01*
X8265946Y-16706728D01*
X8275469Y-16687680D01*
X8446898Y-16668633D02*
X8446898Y-16801966D01*
X8399279Y-16592442D02*
X8351660Y-16735299D01*
X8475470Y-16735299D01*
X8542136Y-16601966D02*
X8542136Y-16640061D01*
X8618327Y-16601966D02*
X8618327Y-16640061D01*
X8913565Y-16878157D02*
X8904041Y-16868633D01*
X8884993Y-16840061D01*
X8875470Y-16821014D01*
X8865946Y-16792442D01*
X8856422Y-16744823D01*
X8856422Y-16706728D01*
X8865946Y-16659109D01*
X8875470Y-16630538D01*
X8884993Y-16611490D01*
X8904041Y-16582918D01*
X8913565Y-16573395D01*
X9075470Y-16601966D02*
X9037374Y-16601966D01*
X9018327Y-16611490D01*
X9008803Y-16621014D01*
X8989755Y-16649585D01*
X8980231Y-16687680D01*
X8980231Y-16763871D01*
X8989755Y-16782919D01*
X8999279Y-16792442D01*
X9018327Y-16801966D01*
X9056422Y-16801966D01*
X9075470Y-16792442D01*
X9084993Y-16782919D01*
X9094517Y-16763871D01*
X9094517Y-16716252D01*
X9084993Y-16697204D01*
X9075470Y-16687680D01*
X9056422Y-16678157D01*
X9018327Y-16678157D01*
X8999279Y-16687680D01*
X8989755Y-16697204D01*
X8980231Y-16716252D01*
X9218327Y-16601966D02*
X9237374Y-16601966D01*
X9256422Y-16611490D01*
X9265946Y-16621014D01*
X9275470Y-16640061D01*
X9284993Y-16678157D01*
X9284993Y-16725776D01*
X9275470Y-16763871D01*
X9265946Y-16782919D01*
X9256422Y-16792442D01*
X9237374Y-16801966D01*
X9218327Y-16801966D01*
X9199279Y-16792442D01*
X9189755Y-16782919D01*
X9180231Y-16763871D01*
X9170708Y-16725776D01*
X9170708Y-16678157D01*
X9180231Y-16640061D01*
X9189755Y-16621014D01*
X9199279Y-16611490D01*
X9218327Y-16601966D01*
X9523089Y-16801966D02*
X9523089Y-16601966D01*
X9608803Y-16801966D02*
X9608803Y-16697204D01*
X9599279Y-16678157D01*
X9580231Y-16668633D01*
X9551660Y-16668633D01*
X9532612Y-16678157D01*
X9523089Y-16687680D01*
X9732612Y-16801966D02*
X9713565Y-16792442D01*
X9704041Y-16782919D01*
X9694517Y-16763871D01*
X9694517Y-16706728D01*
X9704041Y-16687680D01*
X9713565Y-16678157D01*
X9732612Y-16668633D01*
X9761184Y-16668633D01*
X9780231Y-16678157D01*
X9789755Y-16687680D01*
X9799279Y-16706728D01*
X9799279Y-16763871D01*
X9789755Y-16782919D01*
X9780231Y-16792442D01*
X9761184Y-16801966D01*
X9732612Y-16801966D01*
X9913565Y-16801966D02*
X9894517Y-16792442D01*
X9884993Y-16773395D01*
X9884993Y-16601966D01*
X10065946Y-16792442D02*
X10046898Y-16801966D01*
X10008803Y-16801966D01*
X9989755Y-16792442D01*
X9980231Y-16773395D01*
X9980231Y-16697204D01*
X9989755Y-16678157D01*
X10008803Y-16668633D01*
X10046898Y-16668633D01*
X10065946Y-16678157D01*
X10075470Y-16697204D01*
X10075470Y-16716252D01*
X9980231Y-16735299D01*
X10151660Y-16792442D02*
X10170708Y-16801966D01*
X10208803Y-16801966D01*
X10227850Y-16792442D01*
X10237374Y-16773395D01*
X10237374Y-16763871D01*
X10227850Y-16744823D01*
X10208803Y-16735299D01*
X10180231Y-16735299D01*
X10161184Y-16725776D01*
X10151660Y-16706728D01*
X10151660Y-16697204D01*
X10161184Y-16678157D01*
X10180231Y-16668633D01*
X10208803Y-16668633D01*
X10227850Y-16678157D01*
X10304041Y-16878157D02*
X10313565Y-16868633D01*
X10332612Y-16840061D01*
X10342136Y-16821014D01*
X10351660Y-16792442D01*
X10361184Y-16744823D01*
X10361184Y-16706728D01*
X10351660Y-16659109D01*
X10342136Y-16630538D01*
X10332612Y-16611490D01*
X10313565Y-16582918D01*
X10304041Y-16573395D01*
M02*
