M48
; DRILL file {KiCad (6.0.11)} date Sat May  4 19:15:53 2024
; FORMAT={-:-/ absolute / metric / decimal}
; #@! TF.CreationDate,2024-05-04T19:15:53+02:00
; #@! TF.GenerationSoftware,Kicad,Pcbnew,(6.0.11)
; #@! TF.FileFunction,Plated,1,2,PTH
FMAT,2
METRIC
; #@! TA.AperFunction,Plated,PTH,ViaDrill
T1C0.400
; #@! TA.AperFunction,Plated,PTH,ComponentDrill
T2C0.800
; #@! TA.AperFunction,Plated,PTH,ComponentDrill
T3C1.000
%
G90
G05
T1
X58.075Y-86.996
X59.267Y-88.7
X60.374Y-89.288
X66.826Y-87.416
X67.612Y-81.792
X69.171Y-82.104
X69.823Y-115.783
X73.662Y-114.411
X74.747Y-101.788
X78.192Y-104.403
X78.458Y-139.008
X79.175Y-106.973
X79.262Y-145.351
X80.109Y-89.484
X81.197Y-87.442
X81.381Y-144.596
X81.742Y-92.408
X82.273Y-104.621
X83.0Y-100.306
X84.411Y-94.861
X85.6Y-103.159
X86.546Y-119.102
X87.02Y-93.248
X87.802Y-96.157
X87.83Y-131.078
X88.186Y-97.569
X88.295Y-90.962
X89.281Y-98.48
X89.394Y-84.726
X89.726Y-96.356
X90.067Y-99.496
X90.664Y-97.097
X91.72Y-126.744
X91.757Y-101.061
X92.044Y-109.784
X97.724Y-110.449
X98.136Y-105.637
X98.461Y-112.029
X98.634Y-140.484
X99.718Y-140.536
X102.822Y-112.719
X103.637Y-145.744
X105.21Y-89.615
X110.241Y-101.941
X111.277Y-100.761
X111.425Y-138.709
X112.81Y-106.933
X113.177Y-124.714
X113.495Y-133.549
X113.768Y-147.106
X113.938Y-137.917
X115.443Y-99.678
X115.701Y-144.395
X116.337Y-151.697
X117.744Y-119.406
X118.14Y-127.976
X118.24Y-124.876
X118.572Y-99.368
X118.662Y-91.077
X118.748Y-130.788
X119.302Y-89.39
X119.494Y-121.634
X119.977Y-99.69
X120.267Y-119.382
X120.371Y-116.561
X120.574Y-133.549
X120.757Y-121.591
X121.803Y-143.123
X123.19Y-90.422
X124.475Y-127.457
X125.129Y-143.421
X125.471Y-128.96
X125.926Y-122.556
X126.563Y-88.894
X126.653Y-126.732
X128.186Y-127.682
X128.646Y-117.47
X129.16Y-125.836
X129.871Y-123.291
X131.867Y-131.736
X133.205Y-126.073
X133.803Y-127.065
X134.765Y-130.839
X134.888Y-127.616
X135.619Y-98.831
X138.662Y-133.682
X140.462Y-151.697
T2
X56.637Y-82.804
X56.637Y-85.344
X56.637Y-87.884
X56.637Y-90.424
X56.637Y-92.964
X56.637Y-95.504
X56.637Y-98.044
X56.637Y-100.584
X56.637Y-103.124
X56.637Y-105.664
X56.637Y-108.204
X56.637Y-110.744
X56.637Y-113.284
X56.637Y-115.824
X56.637Y-118.364
X56.637Y-120.904
X56.637Y-123.444
X56.637Y-125.984
X56.637Y-128.524
X56.637Y-131.064
X56.642Y-133.878
X56.642Y-136.378
X62.484Y-133.858
X62.484Y-141.478
X66.802Y-138.43
X66.802Y-140.97
X66.802Y-143.51
X66.802Y-146.05
X66.802Y-148.59
X66.802Y-151.13
X66.802Y-153.67
X71.877Y-82.804
X71.877Y-85.344
X71.877Y-87.884
X71.877Y-90.424
X71.877Y-92.964
X71.877Y-95.504
X71.877Y-98.044
X71.877Y-100.584
X71.877Y-103.124
X71.877Y-105.664
X71.877Y-108.204
X71.877Y-110.744
X71.877Y-113.284
X71.877Y-115.824
X71.877Y-118.364
X71.877Y-120.904
X71.877Y-123.444
X71.877Y-125.984
X71.877Y-128.524
X71.877Y-131.064
X71.897Y-135.382
X74.397Y-135.382
X74.422Y-138.43
X74.422Y-140.97
X74.422Y-143.51
X74.422Y-146.05
X74.422Y-148.59
X74.422Y-151.13
X74.422Y-153.67
X76.581Y-94.996
X76.581Y-102.616
X76.708Y-120.269
X76.708Y-127.889
X80.772Y-138.176
X80.772Y-141.986
X80.772Y-149.606
X80.777Y-101.869
X80.777Y-104.409
X80.777Y-106.949
X80.777Y-109.489
X80.777Y-112.029
X80.777Y-114.569
X80.777Y-117.109
X80.777Y-119.649
X80.777Y-122.189
X80.777Y-124.729
X80.777Y-127.269
X80.777Y-129.809
X80.777Y-132.349
X80.777Y-134.889
X83.272Y-138.176
X83.312Y-141.986
X83.312Y-149.606
X84.582Y-77.724
X84.582Y-80.264
X84.582Y-82.804
X84.582Y-85.344
X84.582Y-87.884
X84.582Y-90.424
X84.582Y-92.964
X85.852Y-141.986
X85.852Y-149.606
X88.392Y-141.986
X88.392Y-149.606
X89.682Y-74.676
X90.932Y-141.986
X90.932Y-149.606
X92.182Y-74.676
X92.202Y-77.724
X92.202Y-80.264
X92.202Y-82.804
X92.202Y-85.344
X92.202Y-87.884
X92.202Y-90.424
X92.202Y-92.964
X93.472Y-141.986
X93.472Y-149.606
X96.012Y-141.986
X96.012Y-149.606
X96.017Y-101.869
X96.017Y-104.409
X96.017Y-106.949
X96.017Y-109.489
X96.017Y-112.029
X96.017Y-114.569
X96.017Y-117.109
X96.017Y-119.649
X96.017Y-122.189
X96.017Y-124.729
X96.017Y-127.269
X96.017Y-129.809
X96.017Y-132.349
X96.017Y-134.889
X99.06Y-147.086
X99.06Y-149.586
X100.34Y-77.719
X100.34Y-80.259
X100.34Y-82.799
X100.34Y-85.339
X100.34Y-87.879
X100.34Y-90.419
X100.34Y-92.959
X101.092Y-101.854
X101.092Y-104.394
X101.092Y-106.934
X101.092Y-109.474
X101.092Y-112.014
X101.092Y-114.554
X101.092Y-117.094
X101.092Y-119.634
X101.092Y-122.174
X101.092Y-124.714
X101.092Y-127.254
X101.092Y-129.794
X101.092Y-132.334
X101.092Y-134.874
X101.112Y-138.176
X103.612Y-138.176
X103.637Y-141.996
X103.637Y-149.616
X105.43Y-74.676
X106.177Y-141.996
X106.177Y-149.616
X107.93Y-74.676
X107.96Y-77.719
X107.96Y-80.259
X107.96Y-82.799
X107.96Y-85.339
X107.96Y-87.879
X107.96Y-90.419
X107.96Y-92.959
X108.712Y-138.303
X108.717Y-141.996
X108.717Y-149.616
X111.257Y-141.996
X111.257Y-149.616
X113.797Y-141.996
X113.797Y-149.616
X116.332Y-101.854
X116.332Y-104.394
X116.332Y-106.934
X116.332Y-109.474
X116.332Y-112.014
X116.332Y-114.554
X116.332Y-117.094
X116.332Y-119.634
X116.332Y-122.174
X116.332Y-124.714
X116.332Y-127.254
X116.332Y-129.794
X116.332Y-132.334
X116.332Y-134.874
X116.332Y-138.303
X116.337Y-141.996
X116.337Y-149.616
X118.877Y-141.996
X118.877Y-149.616
X121.92Y-147.106
X121.92Y-149.606
X126.492Y-141.996
X126.492Y-149.616
X126.512Y-138.938
X129.012Y-138.938
X129.032Y-141.996
X129.032Y-149.616
X131.318Y-76.83
X131.318Y-79.37
X131.318Y-81.91
X131.318Y-84.45
X131.318Y-86.99
X131.318Y-89.53
X131.318Y-92.07
X131.318Y-94.61
X131.318Y-97.15
X131.318Y-99.69
X131.318Y-102.23
X131.318Y-104.77
X131.318Y-107.31
X131.318Y-109.85
X131.318Y-112.39
X131.318Y-114.93
X131.318Y-117.47
X131.318Y-120.01
X131.318Y-122.55
X131.318Y-125.09
X131.572Y-141.996
X131.572Y-149.616
X134.112Y-141.996
X134.112Y-149.616
X134.361Y-76.835
X134.361Y-79.375
X134.361Y-81.915
X134.361Y-84.455
X134.361Y-86.995
X134.361Y-89.535
X134.361Y-92.075
X134.361Y-94.615
X134.361Y-97.155
X134.361Y-99.695
X134.361Y-102.235
X134.361Y-104.775
X134.361Y-107.315
X134.361Y-109.855
X134.361Y-112.395
X134.361Y-114.935
X134.361Y-117.475
X134.361Y-120.015
X134.361Y-122.555
X134.361Y-125.095
X136.652Y-141.996
X136.652Y-149.616
X139.192Y-141.996
X139.192Y-149.616
X141.732Y-141.996
X141.732Y-149.616
X146.558Y-76.83
X146.558Y-79.37
X146.558Y-81.91
X146.558Y-84.45
X146.558Y-86.99
X146.558Y-89.53
X146.558Y-92.07
X146.558Y-94.61
X146.558Y-97.15
X146.558Y-99.69
X146.558Y-102.23
X146.558Y-104.77
X146.558Y-107.31
X146.558Y-109.85
X146.558Y-112.39
X146.558Y-114.93
X146.558Y-117.47
X146.558Y-120.01
X146.558Y-122.55
X146.558Y-125.09
X149.601Y-76.835
X149.601Y-79.375
X149.601Y-81.915
X149.601Y-84.455
X149.601Y-86.995
X149.601Y-89.535
X149.601Y-92.075
X149.601Y-94.615
X149.601Y-97.155
X149.601Y-99.695
X149.601Y-102.235
X149.601Y-104.775
X149.601Y-107.315
X149.601Y-109.855
X149.601Y-112.395
X149.601Y-114.935
X149.601Y-117.475
X149.601Y-120.015
X149.601Y-122.555
X149.601Y-125.095
T3
X56.642Y-141.478
X56.642Y-144.018
X66.04Y-74.676
X66.04Y-77.216
X68.58Y-74.676
X68.58Y-77.216
X71.12Y-74.676
X71.12Y-77.216
X73.66Y-74.676
X73.66Y-77.216
X76.2Y-74.676
X76.2Y-77.216
X76.581Y-105.796
X76.581Y-108.336
X76.581Y-114.681
X76.581Y-117.221
X112.4Y-76.835
X114.94Y-76.835
X121.92Y-76.83
X121.92Y-79.37
X121.92Y-81.91
X121.92Y-84.45
X121.92Y-86.99
X121.92Y-89.53
X121.92Y-92.07
X121.92Y-94.61
X121.92Y-97.15
X121.92Y-99.69
X121.92Y-102.23
X121.92Y-104.77
X121.92Y-107.31
X121.92Y-109.85
X121.92Y-112.39
X121.92Y-114.93
X121.92Y-117.47
X121.92Y-120.01
X121.92Y-122.55
X121.92Y-125.09
X124.46Y-76.83
X124.46Y-79.37
X124.46Y-81.91
X124.46Y-84.45
X124.46Y-86.99
X124.46Y-89.53
X124.46Y-92.07
X124.46Y-94.61
X124.46Y-97.15
X124.46Y-99.69
X124.46Y-102.23
X124.46Y-104.77
X124.46Y-107.31
X124.46Y-109.85
X124.46Y-112.39
X124.46Y-114.93
X124.46Y-117.47
X124.46Y-120.01
X124.46Y-122.55
X124.46Y-125.09
X139.192Y-135.382
X141.732Y-135.382
T0
M30
